<?xml version="1.0" encoding="utf-8"?>
<!-- Generator: Adobe Illustrator 24.2.0, SVG Export Plug-In . SVG Version: 6.00 Build 0)  -->
<svg version="1.1" id="Capa_1" xmlns="http://www.w3.org/2000/svg" xmlns:xlink="http://www.w3.org/1999/xlink" x="0px" y="0px"
	 viewBox="0 0 2122 2122" style="enable-background:new 0 0 2122 2122;" xml:space="preserve">
<style type="text/css">
	.st0{display:none;fill:#222323;}
	.st1{fill:#FFFFFF;}
	.st2{fill:none;stroke:#FFFFFF;stroke-width:4.8711;stroke-linecap:round;stroke-linejoin:round;stroke-miterlimit:10;}
</style>
<rect class="st0" width="2121.3" height="2121.3"/>
<g>
	<g>
		<polygon class="st1" points="720,834.7 728.7,844.7 741.9,843.3 735,854.6 740.5,866.7 727.6,863.7 717.8,872.6 716.7,859.4 
			705.2,852.8 717.4,847.7 		"/>
		<polygon class="st1" points="1617.6,1093.5 1618.7,1101.3 1625.7,1104.7 1618.7,1108.2 1617.6,1115.9 1612.2,1110.3 
			1604.5,1111.6 1608.1,1104.7 1604.5,1097.8 1612.2,1099.1 		"/>
		<polygon class="st1" points="947,741.7 948.1,749.4 955.1,752.9 948.1,756.3 947,764.1 941.5,758.5 933.9,759.8 937.5,752.9 
			933.9,746 941.5,747.3 		"/>
		<polygon class="st1" points="1062.4,781.1 1063.5,788.8 1070.5,792.2 1063.5,795.7 1062.4,803.4 1057,797.8 1049.3,799.2 
			1052.9,792.2 1049.3,785.3 1057,786.7 		"/>
		<polygon class="st1" points="784.2,1381.9 785.3,1389.6 792.3,1393 785.3,1396.5 784.2,1404.2 778.8,1398.6 771.1,1399.9 
			774.7,1393 771.1,1386.1 778.8,1387.4 		"/>
		<polygon class="st1" points="1523.8,737.7 1525.7,750.8 1537.6,756.7 1525.7,762.5 1523.8,775.6 1514.6,766.2 1501.5,768.4 
			1507.7,756.7 1501.5,745 1514.6,747.2 		"/>
		<polygon class="st1" points="821,1470.9 822.9,1484 834.8,1489.9 822.9,1495.7 821,1508.9 811.8,1499.4 798.8,1501.6 
			804.9,1489.9 798.7,1478.2 811.8,1480.4 		"/>
		<polygon class="st1" points="452.8,1078 454.7,1091.1 466.5,1097 454.7,1102.8 452.8,1115.9 443.5,1106.5 430.5,1108.7 
			436.6,1097 430.5,1085.3 443.5,1087.5 		"/>
		<polygon class="st1" points="1046.6,1704.2 1048.6,1717.3 1060.4,1723.2 1048.6,1729 1046.7,1742.1 1037.4,1732.7 1024.4,1734.9 
			1030.5,1723.2 1024.4,1711.5 1037.4,1713.7 		"/>
		<polygon class="st1" points="570,1781.4 572,1794.5 583.8,1800.4 572,1806.2 570.1,1819.3 560.8,1809.9 547.8,1812.1 
			553.9,1800.4 547.8,1788.7 560.8,1790.9 		"/>
		<polygon class="st1" points="1618.6,1542.1 1620.5,1555.2 1632.4,1561 1620.5,1566.9 1618.6,1580 1609.4,1570.5 1596.3,1572.8 
			1602.5,1561 1596.3,1549.3 1609.4,1551.6 		"/>
		<polygon class="st1" points="1451.5,1808.9 1453.4,1822 1465.3,1827.9 1453.4,1833.7 1451.5,1846.8 1442.3,1837.4 1429.2,1839.6 
			1435.4,1827.9 1429.2,1816.2 1442.3,1818.4 		"/>
		<polygon class="st1" points="1586.5,1233.2 1588.4,1246.3 1600.2,1252.2 1588.4,1258 1586.5,1271.1 1577.2,1261.7 1564.2,1263.9 
			1570.3,1252.2 1564.2,1240.5 1577.2,1242.7 		"/>
		<g>
			<g>
				<path class="st1" d="M816.1,998.2c-0.8,0.3-1.6,0.6-2.4,0.9c-0.7,0.3-1.5,0.7-2.2,0.9c0.4-0.1,0.8-0.1,1.2-0.2
					c-0.8,0.1-1.7,0.1-2.4,0.3c-0.4,0.1-0.8,0.3-1.2,0.5c-1,0.4-1.9,0.8-2.9,1.2c0.9-0.2,1.8-0.5,2.7-0.7c-2.2,0-4.2,1.1-5.3,3
					c-1.6,2.7-0.7,6.2,2,7.8c2.1,1.2,4.4,0.7,6.6,0c2.4-0.8,3.9-2.8,4-5.3c0,0,0,0,0,0c-0.9,1.5-1.8,3.1-2.6,4.6
					c0.6-0.4,1.2-0.8,1.7-1.2c0.8-0.6,1.5-1.2,1.9-2.2c0.4-0.9,0.6-2.1,0.2-3.1c-0.6-2-2.4-3.4-4.5-3.4c-0.7,0-1.4,0-2,0
					c1.5,0.9,3.1,1.8,4.6,2.6c0,0,0,0,0,0c-0.7-1-1.5-1.8-2.6-2.3c-1.2-0.5-2.3-0.6-3.6-0.3c-0.6,0.1-1.1,0.3-1.7,0.4
					c0.5-0.1,1-0.1,1.5-0.2c-0.2,0-0.3,0-0.5,0c0.5,0.1,1,0.1,1.5,0.2c0,0-0.1,0-0.1,0c0.4,0.2,0.9,0.4,1.3,0.6c0,0,0,0,0,0
					c0.4,0.3,0.8,0.6,1.1,0.9c0,0,0,0,0,0c0.3,0.4,0.6,0.8,0.9,1.1c0,0,0,0,0,0c0.2,0.4,0.4,0.9,0.6,1.3c0,0,0,0,0,0
					c0.1,0.5,0.1,1,0.2,1.5c0,0,0,0,0,0c-0.1,0.5-0.1,1-0.2,1.5c0,0,0,0,0,0c-0.2,0.4-0.4,0.9-0.6,1.3c0,0,0,0,0-0.1
					c-0.3,0.4-0.6,0.8-0.9,1.1c0-0.1,0.1-0.1,0.2-0.1c-0.4,0.3-0.8,0.6-1.1,0.9c1.1-0.8,1.9-1.6,2.4-2.8c0.2-0.4,0.2-0.6,0.3-0.9
					c-0.5,0.8-0.9,1.6-1.4,2.4c0.2-0.1,0.3-0.3,0.5-0.4c-0.4,0.3-0.7,0.6-1.1,0.8c0.5-0.4,0.9-0.7,1.4-1c0.6-0.4,1.2-0.8,1.7-1.3
					c0.3-0.3,0.5-0.6,0.8-0.8c-0.3,0.2-0.6,0.5-0.9,0.7c1.4-0.9,2.7-1.7,4.1-2.6c1.8-1.1,2.5-3.3,1.7-5.2
					C820.3,998.9,818,997.4,816.1,998.2L816.1,998.2z"/>
			</g>
		</g>
		<g>
			<g>
				<path class="st1" d="M704.6,1183.2c-0.2,0.2-0.5,0.4-0.7,0.6c1.4,0,2.8,0,4.2,0c0,0-0.1,0-0.1-0.1c-0.7-0.5-1.3-0.9-2.1-1
					c-0.9-0.1-1.5,0.1-2.4,0.4c0.7-0.3,0.8-0.3,0.5-0.2c-0.4,0.1-0.2,0.1,0.7-0.1c-0.4,0-0.1,0,0.7,0.1c0.5,0.1,1,0.4,1.4,0.8
					c-0.2-0.3-0.1-0.1,0.4,0.6c-0.2-0.3-0.1-0.1,0.3,0.6c0-0.2-0.1-0.3-0.1-0.5c0,0.4,0.1,0.7,0.1,1.1c-0.1-0.6-0.1-1.1-0.2-1.7
					c-0.1-0.3-0.3-0.7-0.4-1c0.1,0.2,0.2,0.4,0.3,0.7c-0.4-0.9-0.8-1.8-1.8-2.3c-0.3-0.1-0.6-0.3-0.9-0.4c-0.5-0.2-0.1,0,1.3,0.7
					c-0.1-0.1-0.2-0.1-0.3-0.2c-0.3-0.2-0.6-0.6-0.9-0.8c-0.7-0.4-1.3-0.4-2-0.2c-0.4,0.2-0.8,0.5-1.1,0.8c-0.2,0.1-0.8,0.7-0.2,0.2
					c0.8-0.6-0.5,0.3-0.6,0.4c-0.5,0.5-0.8,1.2-1,1.9c-0.2,0.8-0.2,1.8,0,2.6c0.3,1,0.7,2,1.5,2.7c1.6,1.7,4.3,2,6.2,0.5
					c0.7-0.5,1.2-1,1.5-1.8c0.3-0.7,0.5-1.7,0.2-2.4c0-0.1-0.1-0.2-0.1-0.3c-0.3,1-0.5,1.9-0.8,2.9c0.2-0.2,0.5-0.5,0.7-0.7
					c1-1.1,1.2-3,0-4.1C707.6,1182.1,705.8,1182.1,704.6,1183.2L704.6,1183.2z"/>
			</g>
		</g>
		<g>
			<g>
				<path class="st1" d="M527.1,929.8c-0.2,0-0.3-0.1-0.5-0.1c0.3,0,0.7,0.1,0.2,0c-0.3,0-0.5-0.1-0.8-0.2c0.8,0.8,1.7,1.7,2.5,2.5
					c-0.4-1.4-1.2-2.6-2.6-3.2c-0.3-0.1-0.6-0.2-0.9-0.4c0.3,0.1,0.7,0.3,1,0.4c-0.1-0.1-0.3-0.1-0.4-0.2c0.3,0.2,0.6,0.4,0.9,0.7
					c-0.1,0-0.1-0.1-0.2-0.2c0.2,0.3,0.4,0.6,0.7,0.9c0-0.1-0.1-0.1-0.1-0.2c0.1,0.3,0.3,0.7,0.4,1c0-0.1,0-0.1-0.1-0.2
					c0.1,0.4,0.1,0.8,0.2,1.1c0-0.1,0-0.2,0-0.2c-0.1,0.4-0.1,0.8-0.2,1.1c0-0.1,0-0.2,0.1-0.2c-0.1,0.3-0.3,0.7-0.4,1
					c0.1-0.2,0.4-0.6-0.1,0.1c-0.5,0.7-0.2,0.3,0,0.1c0.5-0.5-0.9,0.6-0.4,0.3c0.1-0.1,0.3-0.2,0.4-0.2c0.1-0.1,0.3-0.1,0.4-0.2
					c0.7-0.4,0.8-0.6,1.2-1.1c-0.1,0.1,0.8-1.1,0.1-0.2c-0.5,0.7-0.1,0.2,0,0c0.1-0.1,0.2-0.2,0.4-0.3c1.6-1.4,1.1-4.3-0.7-5.2
					c-1.4-0.7-3.1-1.3-4.6-0.7c-1.2,0.5-2.3,1-3.2,2c-1.3,1.4-1.8,3.2-1.3,5c0.5,2,2.2,3.1,4,3.8c1.3,0.5,3.3,0,4.2-1.1
					c0.1-0.1,0.2-0.2,0.3-0.4c-0.8,0.3-1.7,0.7-2.5,1c0.7,0,1.4,0,2-0.1c1.7-0.2,3.4-1.4,3.4-3.4C530.4,931.2,529,930,527.1,929.8
					L527.1,929.8z"/>
			</g>
		</g>
		<g>
			<g>
				<path class="st1" d="M843,753.6c0-0.6,0-1.3,0-1.9c-0.1-0.8-0.3,1.2-0.1,0.4c0.2-0.5,0.2-1.2,0.2-1.7c0.2-1.6-1-3.5-2.5-4.3
					c0,0,0,0,0,0c0.6,0.6,1.1,1.1,1.7,1.7c-0.1-0.1-0.1-0.2-0.2-0.3c0.1,1.1,0.3,2.1,0.4,3.2c0.1-0.2,0.2-0.5,0.2-0.7
					c-0.3,1,0.3-0.6,0.3-0.8c0.3-0.8,0.4-1.7,0.3-2.5c0-1.2-1-2.1-2.1-2.1c-1.7-0.1-3.4,0.5-4.8,1.6c0.7-0.2,1.4-0.4,2.1-0.6
					c0.3,0,0.6,0.1,0.9,0.1c-2.2-0.7-4.4,0.5-5.6,2.3c-1.1,1.6-1.1,3.8-1.1,5.7c0,2.6,2.4,5.2,5.1,5.1
					C840.6,758.5,843,756.4,843,753.6L843,753.6z"/>
			</g>
		</g>
		<g>
			<g>
				<path class="st1" d="M1026.2,745.6c-1.1,1.7-0.4,1.5-1.9,2.3c1.6,0.4,3.3,0.9,4.9,1.3c0,0-0.1-0.1-0.1-0.1
					c0.1,0.9,0.2,1.8,0.4,2.8c0.3-1.7,1.2-3,1.4-4.8c0.2-1.6-1.6-2.4-2.9-2.2c-3,0.6-7.3,4.6-5,8c1.4,2.1,3.8,2.3,5.6,0.7
					c1.3-1.1,1.8-3.7,2.4-5.1C1032.4,745.1,1028.2,742.4,1026.2,745.6L1026.2,745.6z"/>
			</g>
		</g>
		<g>
			<g>
				<path class="st1" d="M1562.5,794.5c-1.2,0.8-2.4,1.8-3.6,2.7c-3.5,2.8,1.7,8.2,5,5c0.5-0.5,1-1,1.4-1.5c0.8-0.9,1.3-2.2,0.9-3.4
					c-0.5-1.5-0.9-1.9-2.4-2.4c-1.2-0.4-2.5,0.1-3.4,0.9c-0.5,0.5-1,0.9-1.5,1.4c-3.2,3.3,2.2,8.4,5,5c0.9-1.2,1.8-2.3,2.7-3.6
					C1568.2,796.1,1564.9,792.8,1562.5,794.5L1562.5,794.5z"/>
			</g>
		</g>
		<g>
			<g>
				<path class="st1" d="M1673.6,829.7c4.6,0,4.6-7.2,0-7.2C1669,822.5,1669,829.7,1673.6,829.7L1673.6,829.7z"/>
			</g>
		</g>
		<g>
			<g>
				<path class="st1" d="M1673.6,1288.7c4.3,0,4.3-6.6,0-6.6C1669.3,1282.1,1669.3,1288.7,1673.6,1288.7L1673.6,1288.7z"/>
			</g>
		</g>
		<g>
			<g>
				<path class="st1" d="M1542.8,1354.4c0-0.3,0-0.6,0-1c0-2-1.7-3.9-3.8-3.8c-2,0.1-3.9,1.7-3.8,3.8c0,1.4,0,2.7,0.1,4.1
					c0,2,1.7,3.9,3.8,3.8c2.1-0.1,3.7-1.7,3.8-3.8c0-1.4,0-2.7,0.1-4.1c0-2-1.8-3.9-3.8-3.8c-2.1,0.1-3.8,1.7-3.8,3.8
					c0,0.3,0,0.6,0,1c0,2,1.8,3.9,3.8,3.8C1541,1358.2,1542.8,1356.6,1542.8,1354.4L1542.8,1354.4z"/>
			</g>
		</g>
		<g>
			<g>
				<path class="st1" d="M1035.5,1783.7c-0.5-0.9-0.9-1.8-1.4-2.6c-1.1-2.1-4.4-2.1-5.5,0c-0.5,0.9-0.9,1.8-1.4,2.6
					c-0.8,1.5-0.9,3.3,0,4.9c0.9,1.5,2.5,2.4,4.2,2.4c1.7,0,3.3-0.9,4.2-2.4C1036.4,1787,1036.3,1785.2,1035.5,1783.7L1035.5,1783.7
					z"/>
			</g>
		</g>
		<g>
			<g>
				<path class="st1" d="M1014,1654.8c-0.2,0.2-0.5,0.4-0.7,0.6c0.3-0.3,0.7-0.5,1-0.8c-0.3,0.2-0.6,0.4-0.9,0.6
					c0.4-0.2,0.8-0.3,1.2-0.5c-0.2,0.1-0.3,0.1-0.5,0.1c0.4-0.1,0.9-0.1,1.3-0.2c-0.1,0-0.1,0-0.2,0c0.4,0.1,0.9,0.1,1.3,0.2
					c-0.1,0-0.2,0-0.3-0.1c0.4,0.2,0.8,0.3,1.2,0.5c-0.1,0-0.2-0.1-0.2-0.1c0.3,0.3,0.7,0.5,1,0.8c-0.1-0.1-0.1-0.1-0.2-0.2
					c0.3,0.3,0.5,0.7,0.8,1c-0.1-0.2-0.2-0.3-0.3-0.5c0.2,0.4,0.3,0.8,0.5,1.2c-0.6-1.4-1.1-2.9-2.5-3.7c-0.4-0.2-0.7-0.3-1.1-0.5
					c0.3,0.2,0.3,0.3,0.2,0.2c-0.1,0-0.1-0.1-0.2-0.1c-0.5-0.3-1.2-0.5-1.9-0.3c-0.3,0.1-0.6,0.2-0.8,0.4c-0.3,0.2,0.2-0.1,0.3-0.1
					c-0.4,0.2-0.7,0.3-1.1,0.5c-0.5,0.3-1,0.7-1.3,1.2c-0.8,1.1-1.2,2.5-1.1,3.9c0.1,1.2,0.3,2.2,0.9,3.3c1,1.6,2.8,2.8,4.8,2.8
					c2.4,0,4.3-1.3,5.9-3c1.8-1.9,2-5.2,0-7C1019,1652.9,1016,1652.9,1014,1654.8L1014,1654.8z"/>
			</g>
		</g>
		<g>
			<g>
				<path class="st1" d="M769.9,1530.3c-0.7-0.1-1.5-0.1-2.2-0.4c0.3,0.1,0.7,0.3,1,0.4c-0.5-0.3,0.9,0.8,0.6,0.5
					c0.2,0.3,0.4,0.6,0.7,0.9c0,0,0,0,0,0c0.1,0.3,0.3,0.7,0.4,1c0,0,0-0.1,0-0.1c0.1,0.4,0.1,0.8,0.2,1.1c0,0,0,0,0,0
					c-0.1,0.4-0.1,0.8-0.2,1.1c0-0.1,0.1-0.2,0.1-0.4c-0.1,0.3-0.3,0.7-0.4,1c0.2-0.4,0.4-0.7,0.6-1c0.1-0.2,0.7-0.9,0.3-0.3
					c-0.6,0.7,0.4-0.4,0.5-0.8c0.2-0.4,0.4-0.9,0.6-1.3c0.2-0.5,0.2-1.4,0-2c-0.2-0.8-0.7-1.4-1.3-1.9c-1.3-1-2.7-0.9-4.1-0.3
					c-1.1,0.5-2.2,1.4-3,2.2c-1.3,1.3-2,3-1.5,4.8c0.6,2.1,2.5,3.3,4.6,3.3c1,0,2.1-0.2,3.1-0.4c0.8-0.1,1.6-0.8,2-1.4
					c0.5-0.7,0.9-1.5,0.8-2.4c0-0.7-0.2-1.4-0.5-2C771.8,1531.3,770.8,1530.4,769.9,1530.3L769.9,1530.3z"/>
			</g>
		</g>
		<g>
			<g>
				<path class="st1" d="M599.3,1685.6c-0.4,0.4-0.9,0.9-1.3,1.3c-0.2,0.2-0.4,0.3-0.5,0.5c0.7-0.5,0.8-0.6,0.5-0.4
					c-0.9,0.6,1.1-0.2,0.4-0.2c-0.9,0-2.2,1.1-2.7,1.7c1.5-0.4,3.1-0.8,4.6-1.2c-0.2,0-1.4-0.4-0.3,0c-0.6-0.2-1.1-0.5-1.7-0.7
					c-1.7-0.5-3.6-0.1-4.5,1.5c-1.4,2.3,0.2,5.3,1.9,7c-0.4-0.7-0.8-1.4-1.2-2.1c0.6,3.8,4.9,4.9,8,3.6c1.8-0.7,3.2-2.2,4.5-3.5
					c2-2,2.1-5.7,0-7.6C604.8,1683.6,601.4,1683.4,599.3,1685.6L599.3,1685.6z"/>
			</g>
		</g>
		<g>
			<g>
				<path class="st1" d="M423.5,1434.8c4.5-0.3,9.6-3.1,12.3-6.7c0.6-0.8,0.3-2.1-0.4-2.8c-1.7-1.9-4.1-1.7-6.4-1.1
					c-1.8,0.4-3.7,1.8-5.6,1.8C417.9,1426.2,418,1435.2,423.5,1434.8L423.5,1434.8z"/>
			</g>
		</g>
		<g>
			<g>
				<path class="st1" d="M568.6,1406.4c0.2,0,0.2-0.3,0-0.3C568.4,1406.1,568.4,1406.4,568.6,1406.4L568.6,1406.4z"/>
			</g>
		</g>
		<g>
			<g>
				<path class="st1" d="M368.3,981.2c-1.3-0.1-2.3-0.6-3.7-0.2c-5,1.6-2.8,9.4,2.2,7.8c0.8-0.3,1.6-0.5,2.4-0.8
					c3.1-1.1,3.1-5.2,0-6.2c-0.8-0.3-1.6-0.5-2.4-0.8c-5-1.6-7.1,6.3-2.2,7.8c1.3,0.4,2.3,0,3.7-0.2
					C373.1,988.3,373.1,981.6,368.3,981.2L368.3,981.2z"/>
			</g>
		</g>
		<g>
			<g>
				<path class="st1" d="M306.1,1334.4c5.4,0,5.4-8.3,0-8.3C300.8,1326.1,300.8,1334.4,306.1,1334.4L306.1,1334.4z"/>
			</g>
		</g>
		<g>
			<g>
				<path class="st1" d="M413.6,1811.3c0.2-0.6,0.5-1.3,0.7-1.9c-0.3,1-0.1,0.1,0.1-0.1c0.1-0.2,0.2-0.5,0.3-0.7
					c0.1-0.2,0.2-0.4,0.3-0.7c0.8-2-0.9-3.7-2.8-2.8c-0.2,0.1-0.4,0.2-0.7,0.3c-0.2,0.1-0.5,0.2-0.7,0.3c-0.1,0.1-0.3,0.1-0.4,0.2
					c-0.3,0.1-0.6,0.1,0.2-0.1c-0.7,0.2-1.3,0.5-1.9,0.7c-1.3,0.5-2.4,1.3-2.8,2.8c-0.4,1.4,0,2.9,1,3.9c1,1,2.5,1.4,3.9,1
					C412.2,1813.7,413,1812.6,413.6,1811.3L413.6,1811.3z"/>
			</g>
		</g>
		<g>
			<g>
				<path class="st1" d="M792.8,2002.1c0.4-0.7,0.9-1.4,1.2-2.1c0.4-0.8,0.7-1.8,1.1-2.7c0.6-1.5-1.2-3.3-2.7-2.7
					c-0.9,0.4-1.8,0.7-2.7,1.1c-0.7,0.4-1.4,0.8-2.1,1.2c-2.1,1.2-2.5,4.1-0.8,5.8C788.6,2004.5,791.6,2004.1,792.8,2002.1
					L792.8,2002.1z"/>
			</g>
		</g>
		<g>
			<g>
				<path class="st1" d="M1342.1,1865.5c4.4,0,4.4-6.8,0-6.8C1337.7,1858.7,1337.7,1865.5,1342.1,1865.5L1342.1,1865.5z"/>
			</g>
		</g>
		<g>
			<g>
				<path class="st1" d="M1569.5,1875.9c0,1.3,0.1,2.6,0.5,3.8c0.5,1.7,2,2.9,3.8,2.9c0,0,0,0,0,0c-1.2-0.9-2.4-1.9-3.7-2.8
					c0.4,1.1,0.9,2.1,1.9,2.8c1.1,0.8,2.5,1.2,3.9,0.8c2-0.6,3.1-2.1,3.8-4c0.4-1,0.4-2,0-3c-0.2-0.4-0.3-0.8-0.5-1.2
					c-0.6-1-1.8-1.7-2.9-1.3c-0.6,0.2-1,0.5-1.4,0.9c-0.1,0.1-0.2,0.1-0.2,0.2c-0.4,0.4,0.7-0.5,0.3-0.2c-0.7,0.5-1.1,0.9-1.5,1.6
					c-0.1,0.1-0.1,0.2-0.2,0.3c-0.3,0.4,0.7-0.8,0.2-0.3c-0.2,0.2-0.8,0.7-0.1,0.2c0.8-0.6-0.4,0.1,0.5-0.3c0.7-0.3,0.5-0.2,0.3-0.1
					c-0.4,0.1,0.9-0.1,0.8-0.1c-0.5,0,1,0.2,0.7,0.1c-0.1,0,1,0.4,0.8,0.3c-0.3-0.2,0.9,0.8,0.6,0.4c0.1,0.1,0.7,1,0.4,0.4
					c0.1,0.2,0.4,1,0.2,0.3c-0.6,1.4-1.2,2.9-1.7,4.3c0,0,0,0,0,0c1.5-1,2.2-2.7,1.8-4.4c-0.1-0.2-0.1-0.5-0.1-0.7
					c0,0.3,0.1,0.7,0.1,1c-0.1-0.7-0.1-1.4-0.1-2c0-2.1-1.9-4.1-4-4C1571.3,1872,1569.4,1873.6,1569.5,1875.9L1569.5,1875.9z"/>
			</g>
		</g>
		<g>
			<g>
				<path class="st1" d="M1451.7,1578c3.1-3,7.6-4.3,9.6-8.4c0.7-1.4-0.5-3.9-2.4-3.1c-4.4,1.8-8.8,3.1-12.3,6.4
					C1443.2,1576,1448.4,1581.3,1451.7,1578L1451.7,1578z"/>
			</g>
		</g>
		<g>
			<g>
				<path class="st1" d="M1741.9,1541.4c-1.1,0.2-2.2,0.3-3.3,0.5c-1.1,0.1-1.9,1.4-1.9,2.5c0,1,0.7,2.3,1.9,2.5
					c1.1,0.2,2.2,0.3,3.3,0.5c1.1,0.2,2.2,0.1,3-0.8c0.5-0.6,0.9-1.3,0.9-2.1c0-0.8-0.3-1.6-0.9-2.1
					C1744,1541.4,1743,1541.3,1741.9,1541.4L1741.9,1541.4z"/>
			</g>
		</g>
		<g>
			<g>
				<path class="st1" d="M1815.2,1330.4c0.2,0,0.2-0.3,0-0.3C1815,1330.1,1815,1330.4,1815.2,1330.4L1815.2,1330.4z"/>
			</g>
		</g>
		<g>
			<g>
				<path class="st1" d="M1755.5,1126.5c-0.9,0.2-1.9,0.3-2.8,0.5c-0.5,0.1-0.9,0,0.4,0c-1.6,0-3.1,1.4-3.1,3.1
					c0.1,1.7,1.4,3.1,3.1,3.1c0.2,0-1.1-0.2-0.8-0.1c0.1,0,0.3,0,0.4,0.1c0.9,0.2,1.9,0.3,2.8,0.5c1.3,0.2,2.6,0.1,3.5-0.9
					c0.7-0.7,1.1-1.6,1.1-2.6c0-0.9-0.4-1.9-1.1-2.6C1758.1,1126.4,1756.8,1126.3,1755.5,1126.5L1755.5,1126.5z"/>
			</g>
		</g>
		<g>
			<g>
				<path class="st1" d="M1505,1153.1c0.4-0.8,0.8-1.6,1.3-2.4c0.5-0.9,0.9-1.9,0.8-2.9c0-0.8-0.3-1.6-0.9-2.2
					c-0.6-0.6-1.4-0.8-2.2-0.9c-1.1-0.1-2,0.3-2.9,0.8c-0.8,0.4-1.6,0.8-2.4,1.3c-2.7,1.4-3,5.3-0.9,7.4
					C1499.7,1156.1,1503.6,1155.8,1505,1153.1L1505,1153.1z"/>
			</g>
		</g>
		<g>
			<g>
				<path class="st1" d="M1456,783.2c0.5-0.7,0.9-1.4,1.4-2.1c0.6-0.9,1-1.7,1-2.8c0-0.2,0-0.4,0-0.6c0-1.3-1-2.2-2.3-2.3
					c-0.2,0-0.4,0-0.6,0c-1.1,0-1.9,0.4-2.8,1c-0.7,0.5-1.4,0.9-2.1,1.4c-1.1,0.8-2,1.9-1.9,3.4c0,1,0.4,2,1.1,2.7
					c0.7,0.7,1.8,1.1,2.7,1.1C1454,785.1,1455.2,784.3,1456,783.2L1456,783.2z"/>
			</g>
		</g>
		<g>
			<g>
				<path class="st1" d="M1329.1,1072.1c-0.5,0.5-1.1,1-1.5,1.5c1.8,1.8,3.5,3.5,5.3,5.3c0.5-0.6,1-1.2,1.4-1.9
					c1.6-3.1-1.6-6.4-4.8-4.8c-0.7,0.4-1.3,0.9-1.9,1.4c-3.7,3.1,1.6,8.4,5.3,5.3c0.5-0.4,1-1.1,1.5-1.5
					C1337.7,1073.9,1332.6,1068.8,1329.1,1072.1L1329.1,1072.1z"/>
			</g>
		</g>
		<g>
			<g>
				<path class="st1" d="M1083.9,849.4c-0.1,0-0.1,0-0.2,0c0.4,0.1,0.8,0.1,1.2,0.2c-0.3-0.1-0.6-0.1-1-0.3c0.4,0.2,0.8,0.3,1.1,0.5
					c-0.2-0.1-0.4-0.2-0.6-0.3c0.3,0.3,0.7,0.5,1,0.8c-0.2-0.2-0.4-0.4-0.6-0.6c0.3,0.3,0.5,0.7,0.8,1c-0.1-0.1-0.1-0.2-0.2-0.3
					c0.2,0.4,0.3,0.8,0.5,1.2c0-0.1-0.1-0.2-0.1-0.3c0.1,0.4,0.1,0.9,0.2,1.3c0-0.1,0-0.3,0-0.4c-0.1,0.4-0.1,0.8-0.2,1.3
					c0-0.1,0.1-0.3,0.1-0.4c-0.2,0.4-0.3,0.8-0.5,1.1c0-0.1,0.1-0.2,0.2-0.3c-0.2,0.3-0.5,0.6-0.7,1c0.4-0.5,0.8-1.1,1.2-1.6
					c-0.2,0.3-0.5,0.6-0.7,0.9c0.1-0.1,0.1-0.2,0.2-0.2c0.4-0.4-0.4,0.3-0.5,0.3c0.7-0.6,1.3-1.1,1.7-1.9c0.2-0.6,0.4-0.9,0.4-1.6
					c-0.1-1.4-0.8-2.8-2-3.5c-0.8-0.4-1.6-0.6-2.5-0.7c-2.2-0.2-4.4,1-5.5,3c-1.2,2.3-0.9,5.3,0.9,7.2c1.5,1.5,3.6,2.2,5.7,2
					c1.3-0.1,2.4-0.4,3.3-1.4c0.8-0.8,1.4-2.1,1.4-3.3c-0.1-1.2-0.4-2.5-1.4-3.3c-0.3-0.2-0.6-0.5-0.9-0.7
					C1085.5,849.6,1084.7,849.4,1083.9,849.4L1083.9,849.4z"/>
			</g>
		</g>
		<g>
			<g>
				<path class="st1" d="M1008.3,667.9c-1.4,1.7-3,3.3-3.7,5.4c-0.5,1.5-0.4,3.1-0.3,4.6c0.4,4.7,7,4.7,7.4,0c0-0.3,0.1-0.7,0.1-1
					c0.1-0.9-0.2,0.7,0-0.1c0,0,0.1-0.6,0.2-0.6c0,0-0.5,0.9,0,0.2c0.4-0.6-0.7,0.6,0,0.1c0.2-0.2,0.4-0.4,0.7-0.6
					c0.6-0.6,1.3-1.1,2-1.7c1.8-1.5,1.6-4.7,0-6.2C1012.8,666.4,1009.8,666.1,1008.3,667.9L1008.3,667.9z"/>
			</g>
		</g>
		<g>
			<g>
				<path class="st1" d="M1007.1,966.3c-3,0.1-6.7-0.1-8.9,2.3c-1.3,1.5-1.3,3.4,0,4.9c2.2,2.5,5.9,2.2,8.9,2.3
					c2.5,0.1,4.9-2.3,4.8-4.8C1011.8,968.6,1009.8,966.2,1007.1,966.3L1007.1,966.3z"/>
			</g>
		</g>
		<g>
			<g>
				<path class="st1" d="M1353.3,818c0.2,0,0.2-0.3,0-0.3C1353.1,817.6,1353.1,818,1353.3,818L1353.3,818z"/>
			</g>
		</g>
		<g>
			<g>
				<path class="st1" d="M847.1,863.3c-0.9,0.2-1.9,0.4-2.8,0.6c-0.6,0.1-0.8,0,0.5,0c-1.9,0-3.8,1.7-3.7,3.7c0.1,2,1.6,3.7,3.7,3.7
					c0.2,0-1.3-0.2-0.9-0.1c0.1,0,0.3,0.1,0.4,0.1c0.9,0.2,1.9,0.4,2.8,0.6c1.5,0.3,3.2,0.1,4.3-1.1c0.8-0.9,1.3-1.9,1.3-3.1
					c0-1.1-0.5-2.3-1.3-3.1C850.2,863.3,848.7,863,847.1,863.3L847.1,863.3z"/>
			</g>
		</g>
		<g>
			<g>
				<path class="st1" d="M755.1,691.6c0.2,0,0.2-0.3,0-0.3C754.8,691.3,754.8,691.6,755.1,691.6L755.1,691.6z"/>
			</g>
		</g>
		<g>
			<g>
				<path class="st1" d="M842.3,1213.7c1.8,0,3.8,0,5.1-1.4c1.5-1.6,1.7-5.1-0.1-6.5c-1-0.8-2.1-0.8-3.1,0c-1,0.8-1.2,2-1.3,3.1
					c0,0.1,0,0.2,0,0.4c0-0.8,0.1-0.6,0-0.3c0,0.1-0.1,0.2-0.1,0.2c0.2-0.5,0.3-0.7,0.2-0.5c-0.1,0.1,0,0.1,0.1-0.2
					c0.4-0.6-0.3,0.1,0.3-0.3c0.3-0.2,0.3-0.2,0.2-0.1c0.6-0.2,0.7-0.3,0.5-0.2c-0.1,0-0.2,0-0.3,0.1c-0.4,0.1,0.8-0.1,0.4,0
					c-0.6,0-1.3,0-1.9,0c-1.5,0-2.9,1.3-2.9,2.9C839.4,1212.3,840.6,1213.7,842.3,1213.7L842.3,1213.7z"/>
			</g>
		</g>
		<g>
			<g>
				<path class="st1" d="M1049.3,611.3c-1.2,0.1-2.4,0.1-3.5,0.3c0.4,0,0.7-0.1,1.1-0.1c-0.1,0-0.2,0-0.4,0c0.4,0,0.7,0.1,1.1,0.1
					c-0.7-0.1,1,0.5,0.5,0.2c0.9,0.6,0.8,0.7,0.6,0.4c0.5,0.6,0.6,0.8,0.4,0.6c-0.2-0.3-0.4-0.5-0.6-0.8c-0.1-0.1-0.3-0.3-0.3-0.4
					c0,0.2,0.7,0.9,0.1,0.1c-0.4-0.5-0.9-0.9-1.6-1.1c-1.6-0.5-3,0.6-3.7,2c-1,1.9-0.7,4.2,0.9,5.7c0.7,0.7,1.7,1.3,2.7,1.4
					c0.9,0.2,1.9,0.3,2.8,0.3c1.1,0.1,2.4-0.6,3.1-1.3c0.8-0.8,1.4-2,1.3-3.1C1053.7,613.5,1051.8,611.1,1049.3,611.3L1049.3,611.3z
					"/>
			</g>
		</g>
		<g>
			<g>
				<path class="st1" d="M1353.3,790.3c0.2,0,0.2-0.3,0-0.3C1353.1,790,1353.1,790.3,1353.3,790.3L1353.3,790.3z"/>
			</g>
		</g>
		<g>
			<g>
				<path class="st1" d="M855.2,953.8c-1.3,0-2.8-0.1-4.1,0.2c-3.3,0.8-3.3,6,0,6.8c1.3,0.3,2.8,0.2,4.1,0.2c1.9,0,3.6-1.7,3.6-3.6
					C858.7,955.4,857.2,953.7,855.2,953.8L855.2,953.8z"/>
			</g>
		</g>
		<g>
			<g>
				<path class="st1" d="M762,1136.9c4.5,0,4.5-7,0-7C757.5,1130,757.5,1136.9,762,1136.9L762,1136.9z"/>
			</g>
		</g>
		<g>
			<g>
				<path class="st1" d="M774.9,973.7c0.3-0.3,0.6-0.6,1-1c1.3-1.4,1.5-3.8,0-5.1c-1.5-1.3-3.7-1.4-5.1,0c-0.6,0.6-1.2,1.2-1.8,1.8
					c-1.1,1.1-2.8,2.4-3.2,4c-0.6,2.7,1.7,4.9,4.3,4.3c1.6-0.4,2.9-2.1,4-3.2c0.6-0.6,1.2-1.2,1.8-1.8c-1.7-1.7-3.4-3.4-5.1-5.1
					c-0.3,0.3-0.6,0.6-1,1c-1.4,1.3-1.4,3.8,0,5.2C771.2,975,773.5,975.2,774.9,973.7L774.9,973.7z"/>
			</g>
		</g>
		<g>
			<g>
				<path class="st1" d="M592.2,1147.2c0,0.2,0.2-0.3,0-0.1c-0.1,0.1-0.2,0.4-0.4,0.5c-0.5,0.3-1.2,0.1-0.1,0.3
					c1.4,0.3,2.5,1.2,3.9,1.5c1.6,0.3,3-1,2.6-2.6c-0.7-2.8-4.1-5.3-7-5.1c-3.1,0.2-5,2.7-4.9,5.7
					C586.4,1151.1,591.9,1150.9,592.2,1147.2L592.2,1147.2z"/>
			</g>
		</g>
		<g>
			<g>
				<path class="st1" d="M782.7,1299.7c5.1,0,5.1-7.9,0-7.9C777.6,1291.8,777.6,1299.7,782.7,1299.7L782.7,1299.7z"/>
			</g>
		</g>
		<g>
			<g>
				<path class="st1" d="M666.1,1400.5c0.1-0.2,0.1-0.5,0.2-0.7c0.1-0.2,0.1-0.4,0.2-0.6c0,0,0.1-0.4,0.1-0.4
					c-0.1,0-0.4,0.9-0.1,0.3c0.4-0.9,0.7-1.6,0.8-2.6c0-0.2,0-0.4,0-0.6c0.1-1.1-1-2.1-2-2c-0.2,0-0.4,0-0.6,0
					c-1,0.1-1.7,0.4-2.6,0.8c-0.5,0.2-0.1-0.1,0.3-0.1c-0.1,0-0.3,0.1-0.4,0.1c-0.2,0.1-0.4,0.1-0.7,0.2c-0.2,0.1-0.5,0.1-0.7,0.2
					c-3.2,0.9-4.3,5.1-2,7.4C661.1,1404.9,665.2,1403.7,666.1,1400.5L666.1,1400.5z"/>
			</g>
		</g>
		<g>
			<g>
				<path class="st1" d="M844.8,1527c-0.9,0.1-1.7,0.1-2.6,0.2c-5.9,0.4-2.8,9.2,1.7,6.3c0.5-0.3,1-0.5,1.5-0.8
					c2.1-0.9,2.1-3.4,0-4.3c-0.5-0.3-1-0.5-1.5-0.8c-4.5-2.9-7.7,6-1.7,6.3c0.9,0.1,1.7,0.1,2.6,0.2
					C849.4,1534.4,849.4,1526.7,844.8,1527L844.8,1527z"/>
			</g>
		</g>
		<g>
			<g>
				<path class="st1" d="M697.4,1589.3c0-1.1,0-2.1,0-3.2c0-2.4-2.1-4.6-4.5-4.5c-2.5,0.1-4.5,2-4.5,4.5c0,1.1,0,2.1,0,3.2
					c0,2.4,2.1,4.6,4.5,4.5C695.4,1593.7,697.4,1591.8,697.4,1589.3L697.4,1589.3z"/>
			</g>
		</g>
		<g>
			<g>
				<path class="st1" d="M948.4,1630.5c-0.6,0-1.2,0-1.8,0c0.9,0.4,1.7,0.7,2.6,1.1c-0.1-0.1-0.1-0.1-0.2-0.2c-1-1.1-2.6-1.4-4-1.1
					c-2.5,0.7-4.4,3.1-3.6,5.8c0.5,1.6,1.6,2.8,3.1,3.6c2.7,1.4,6.1,2.2,8.8,0.5c2-1.3,1.9-4,0-5.2c-0.2-0.2-0.8-0.5,0.2,0.2
					c-0.3-0.2-0.5-0.5-0.9-0.7c-0.3-0.2-0.5-0.3-0.8-0.4c-0.9-0.4-1.8-0.8-2.7-1.2c0.3,0.1,0.7,0.3,1,0.4c-0.6-0.2-1.1-0.5-1.6-0.9
					c-0.8-0.5,0.9,0.8,0.2,0.2c-0.1-0.1-0.1-0.1-0.2-0.2c-0.4-0.3,0.7,1.1,0.5,0.6c0.1,0.3,0.3,0.7,0.4,1c0,0,0-0.1,0-0.1
					c0,0.4,0.1,0.7,0.1,1.1c0,0,0-0.1,0-0.1c0,0.4-0.1,0.7-0.1,1.1c0,0,0-0.1,0-0.1c-0.1,0.3-0.3,0.7-0.4,1
					c-0.1,0.2-0.6,0.7-0.9,0.9c-0.7,0.5-0.3,0.3-0.1,0.2c-0.3,0.1-0.7,0.3-1,0.4c1.6-0.6,2.5-1.5,3.1-3.2c-0.9,0.9-1.7,1.7-2.6,2.6
					c0.9-0.2-0.8,0.1-0.1,0c0.3,0,0.6,0,0.9-0.1c1.9-0.1,3.7-1.6,3.6-3.6C951.9,1632.1,950.4,1630.6,948.4,1630.5L948.4,1630.5z"/>
			</g>
		</g>
		<g>
			<g>
				<path class="st1" d="M1093.4,1697.3c0.2,0.9,0.3,1.9,0.5,2.8c0.1,0.5,0,0.9,0-0.4c0,1.6,1.4,3.1,3.1,3.1
					c1.7-0.1,3.1-1.4,3.1-3.1c0-0.2-0.2,1.1-0.1,0.8c0-0.1,0-0.3,0.1-0.4c0.2-0.9,0.3-1.9,0.5-2.8c0.2-1.3,0.1-2.6-0.9-3.6
					c-0.7-0.7-1.6-1.1-2.6-1.1c-0.9,0-1.9,0.4-2.6,1.1C1093.3,1694.7,1093.1,1696,1093.4,1697.3L1093.4,1697.3z"/>
			</g>
		</g>
		<g>
			<g>
				<path class="st1" d="M1090,1821.1c-0.6,0-1.2,0.1-1.8,0.2c-0.6,0.1-1.2,0.3-1.7,0.6c-0.4,0.2-0.8,0.4-1.2,0.8
					c-0.7,0.9-0.7,1.9,0,2.8c0.3,0.4,0.7,0.6,1.2,0.8c0.4,0.2,0.9,0.4,1.3,0.6c0.7,0.2,1.5,0.2,2.1,0.2c1.5,0.1,3-1.4,3-3
					C1092.9,1822.6,1091.7,1821,1090,1821.1L1090,1821.1z"/>
			</g>
		</g>
		<g>
			<g>
				<path class="st1" d="M931.2,1873.3c5.6,0,5.6-8.7,0-8.7C925.6,1864.6,925.6,1873.3,931.2,1873.3L931.2,1873.3z"/>
			</g>
		</g>
		<g>
			<g>
				<path class="st1" d="M1383.5,1607.4c5.6,0,5.6-8.7,0-8.7C1377.9,1598.7,1377.9,1607.4,1383.5,1607.4L1383.5,1607.4z"/>
			</g>
		</g>
		<g>
			<g>
				<path class="st1" d="M1335.2,1783.8c6,0,6-9.3,0-9.3C1329.2,1774.5,1329.2,1783.8,1335.2,1783.8L1335.2,1783.8z"/>
			</g>
		</g>
		<g>
			<g>
				<path class="st1" d="M1295,1767.6c2.2,2,4.8,3.7,7.9,3c2.6-0.6,4.7-2.2,6.1-4.4c0.9-1.4-0.8-2.9-2.2-2.2
					c-1.1,0.6-2.5,1.6-3.8,1.3c-1.4-0.3-2.5-1.2-3.5-2.1C1296.5,1760.3,1291.9,1764.9,1295,1767.6L1295,1767.6z"/>
			</g>
		</g>
		<g>
			<g>
				<path class="st1" d="M1418.1,1724.1c0.2,0,0.2-0.3,0-0.3C1417.8,1723.8,1417.8,1724.1,1418.1,1724.1L1418.1,1724.1z"/>
			</g>
		</g>
		<g>
			<g>
				<path class="st1" d="M1521.7,1530.7c0.2,0,0.2-0.3,0-0.3C1521.4,1530.4,1521.4,1530.7,1521.7,1530.7L1521.7,1530.7z"/>
			</g>
		</g>
		<g>
			<g>
				<path class="st1" d="M1481.6,1511.4c1.4-0.4,2.8-1.2,3.8-2.1c2-1.9,2.7-4.7,1.8-7.3c-0.5-1.5-1.9-2.7-3.5-2.7
					c-1.7,0.1-2.9,1.1-3.5,2.7c0.4-1.1,0.2-0.5,0.1-0.3c-0.4,0.7,0.4-0.4,0.3-0.3c-0.2,0.2-0.4,0.4-0.6,0.6c0.3-0.2,0.6-0.5,0.9-0.7
					c-0.2,0.1-0.4,0.3-0.6,0.4c0.4-0.2,0.7-0.3,1.1-0.5c-0.3,0.1-0.5,0.2-0.8,0.2c0.4-0.1,0.9-0.1,1.3-0.2c-0.4,0.1-0.8,0-1.2,0
					c0.5,0.1,0.9,0.1,1.4,0.2c-0.1,0-0.2,0-0.3-0.1c-3.3-0.8-6.6,1.6-6.6,5C1475,1509.8,1478.3,1512.2,1481.6,1511.4L1481.6,1511.4z
					"/>
			</g>
		</g>
		<g>
			<g>
				<path class="st1" d="M1590.7,1354.6c0.2,0,0.2-0.3,0-0.3C1590.5,1354.3,1590.5,1354.6,1590.7,1354.6L1590.7,1354.6z"/>
			</g>
		</g>
		<g>
			<g>
				<path class="st1" d="M1528.6,1251c0.2,0,0.2-0.3,0-0.3C1528.4,1250.7,1528.4,1251,1528.6,1251L1528.6,1251z"/>
			</g>
		</g>
		<g>
			<g>
				<path class="st1" d="M1583.8,1178.5c0.2,0,0.2-0.3,0-0.3C1583.6,1178.2,1583.6,1178.5,1583.8,1178.5L1583.8,1178.5z"/>
			</g>
		</g>
		<g>
			<g>
				<path class="st1" d="M1454.4,1157.6c0-1-0.1-2.1-0.1-3.1c-0.1-2.7-2.3-5.3-5.1-5.1c-2.8,0.1-5.1,2.3-5.1,5.1
					c0,1-0.1,2.1-0.1,3.1c-0.1,2.7,2.5,5.3,5.2,5.2C1451.9,1162.7,1454.4,1160.5,1454.4,1157.6L1454.4,1157.6z"/>
			</g>
		</g>
		<g>
			<g>
				<path class="st1" d="M1505.4,1215.6c-2.2,1.5-4.2,3.1-6.3,4.8c0.4-0.3,0.8-0.6,1.2-0.9c-0.2,0.2-0.4,0.3-0.7,0.5
					c2.4,0.3,4.7,0.6,7.1,0.9c-0.1-0.1-0.2-0.2-0.3-0.2c0.4,2.8,0.7,5.6,1.1,8.4c0.7-1.7,1.7-3.2,2.2-4.9c-0.2,0.5-0.4,1-0.6,1.5
					c0.8-1.4,1.4-2.9,1.9-4.4c0.5-1.6,1-3.2,1-4.9c0-1.3-0.6-2.5-1.6-3.3c-1-0.7-2.4-1.2-3.6-0.7c-0.9,0.4-1.8,0.7-2.6,1.3
					c-0.9,0.6-1.7,1.3-2.6,2c-0.5,0.4-1,0.7-1.4,1.2c-0.4,0.4-0.7,0.9-1.1,1.3c0.4-0.3,0.9-0.7,1.3-1c-1.1,0.8-1.9,1.5-2.8,2.5
					c-0.3,0.4-0.6,0.7-0.9,1.1c-0.9,0.9-1.5,1.9-1.8,3.1c-0.3,1.2-0.3,2.5,0,3.7c0.6,2.1,2.1,3.7,4,4.5c2,0.9,4.3,0.8,6.2-0.4
					c1.9-1.1,3.7-3.6,3.4-6c0-0.2,0-0.4-0.1-0.5c-0.6,1.4-1.1,2.8-1.7,4.1c1.9-2.2,3.7-4.5,5.3-6.9c1.1-1.7,0.7-4.5-0.8-5.9
					C1509.8,1214.9,1507.2,1214.3,1505.4,1215.6L1505.4,1215.6z"/>
			</g>
		</g>
		<g>
			<g>
				<path class="st1" d="M1561.1,1125.2c0-0.1,0-0.2-0.1-0.4c0.1,0.4,0.1,0.9,0.2,1.3c0-0.3,0-0.6,0-1c-0.1,0.4-0.1,0.9-0.2,1.3
					c0-0.2,0.1-0.4,0.2-0.7c-0.2,0.4-0.3,0.7-0.5,1.1c0.1-0.3,0.3-0.5,0.4-0.7c0.1-0.1,0.1-0.2,0.2-0.3c0.3-0.6-0.8,0.9-0.4,0.5
					c0.1-0.2,0.3-0.3,0.4-0.4c0.3-0.3-0.9,0.6-0.5,0.4c0.5-0.3,1.1-0.8,1.4-1.4c0.7-1.5,0.6-3.1-0.6-4.4c-1.3-1.4-3.9-1.5-5.6-1
					c-2.5,0.7-4.3,3.2-4.9,5.6c-0.4,1.7-0.1,3.7,1.3,5c1,0.9,2.2,1.5,3.6,1.5c1.3,0,2.7-0.6,3.6-1.5
					C1561.2,1128.8,1561.4,1127,1561.1,1125.2L1561.1,1125.2z"/>
			</g>
		</g>
	</g>
	<g>
		<g>
			<g>
				<g>
					<path class="st1" d="M1366.1,1322.6c-6.1-26.8-15.7-52.9-29-76.9c-12.2-22-27.6-42.2-45.5-59.9c-16.8-16.6-36-30.8-56.8-41.9
						c-20.1-10.7-41.9-18.5-64.3-22.8c-21.9-4.2-44.5-5.1-66.7-2.3c-24.9,3.1-49.3,10.5-72.1,20.8c-24,10.8-46.4,25.2-66.4,42.2
						c-19.9,16.9-37.5,36.8-51.5,58.9c-14,22-25.1,46.2-31.2,71.6c-6.3,26.2-8.1,53.5-4.9,80.2c3.3,27.7,12.2,54.5,23.8,79.8
						c11.4,24.9,26.1,48.2,43.5,69.3c16.9,20.4,36.6,38.6,58.6,53.3c21.2,14.1,44.8,25,69.6,31c25.5,6.2,52,7.2,78,2.9
						c26.1-4.3,50.8-14.4,74.2-26.3c21.9-11.1,42.6-24.4,61.6-39.9c18.7-15.3,35.4-33,49.2-52.8c14-20.1,24.7-42.5,31.2-66.2
						c7.1-25.7,9.3-52.7,7.3-79.2c-0.6-7.1-1.4-14.1-2.5-21.1c-0.3-1.8-0.5-3.6-0.9-5.3c-0.4-1.8-1.3-3.5-2-5.1
						c-0.7-1.6-1.4-3.2-2.1-4.8c-0.7-1.6-2-3.4-2.3-5c-0.2-0.8-1.5-0.5-1.3,0.4c0.3,1.5,0,3.7-0.1,5.3c0,1.9-0.1,3.9-0.2,5.8
						c-0.1,3.8,0.4,7.3,0.9,11c1,7,1.8,14.1,2.2,21.1c0.8,13.3,0.6,26.6-0.8,39.8c-2.6,24-9.4,47.6-20.1,69.2
						c-10.3,21-24,40.1-40,57c-16.2,17-34.6,31.8-54.4,44.4c-20.1,12.8-41.5,23.7-63.8,32.2c-24.5,9.3-50.6,13.8-76.8,12.6
						c-24.5-1.2-48.7-7.4-71-17.7c-22.7-10.5-43.5-24.8-61.9-41.8c-19.2-17.8-35.8-38.3-49.6-60.6c-14-22.7-25.2-47.1-33-72.6
						c-7.9-25.7-11-52.2-9.2-79c1.8-25.1,8-50.2,17.9-73.4c10-23.3,23.7-44.9,40.3-64.1c16.7-19.3,36.2-36.3,57.8-49.9
						c21.8-13.7,45.5-24.4,70.3-31.2c21.6-6,43.8-9,66.2-8.2c21.9,0.8,43.6,5.2,64.3,12.5c21.4,7.6,41.6,18.3,59.9,31.6
						c19.3,14.1,36.5,31.1,50.9,50.1c15.5,20.6,27.9,43.4,37,67.5c4.7,12.6,8.6,25.5,11.6,38.5
						C1362.7,1326.3,1366.7,1325.2,1366.1,1322.6z"/>
				</g>
			</g>
			<g>
				<g>
					<g>
						<path class="st1" d="M1365.8,1346.2c-1,2-1.6,4.3-2.4,6.4c-0.7,2.2-1.4,4.4-2.2,6.6c-1.4,4.3-3,8.5-4.4,12.8
							c-2.8,8.5-5.9,16.9-9.2,25.1c-6.7,16.5-14.6,32.5-23.1,48.1c-2.5,4.6-5.2,9.1-7.7,13.6c-2.7,4.7-5.7,9.3-8.2,14.1
							c-0.4,0.8,0.7,1.7,1.3,1c3.1-3.7,5.8-7.7,8.5-11.6c2.7-3.9,5.3-7.9,7.7-11.9c4.8-7.8,9.2-15.8,13.3-24
							c8.1-16.1,14.9-32.8,20.6-49.9c1.6-4.9,3-9.8,4.3-14.8c0.6-2.4,1.3-4.9,1.9-7.4c0.6-2.6,1.3-5.2,1.4-7.8
							C1367.6,1345.7,1366.2,1345.3,1365.8,1346.2L1365.8,1346.2z"/>
					</g>
				</g>
				<g>
					<g>
						<path class="st1" d="M1354.4,1353.3c-1.2,1.6-1.8,3.6-2.6,5.4c-0.7,1.8-1.5,3.5-2.3,5.3c-1.6,3.7-3.3,7.3-5,11
							c-3.3,7.2-6.9,14.3-10.6,21.3c-7.5,14.2-15.7,28.1-23.8,42c-4.7,7.9-9.3,15.8-13.6,23.9c-0.5,0.9,0.8,1.6,1.3,0.8
							c4.8-6.6,9.2-13.5,13.6-20.4c4.4-6.9,8.8-13.9,12.9-21c8.1-13.9,15.8-28,22.7-42.6c1.9-4.1,3.7-8.2,5.5-12.3
							c0.9-2.1,1.7-4.1,2.5-6.2c0.8-2.1,1.8-4.2,2.1-6.5C1357.2,1352.4,1355.1,1352.3,1354.4,1353.3L1354.4,1353.3z"/>
					</g>
				</g>
				<g>
					<g>
						<path class="st1" d="M1331.8,1370c-2.3,1.7-3.5,4.6-4.8,7.1c-1.4,2.6-2.8,5.2-4.2,7.8c-2.8,5.4-5.5,10.7-8.3,16.1
							c-5.6,11-11.3,21.9-17.4,32.6c-3.4,5.9-7,11.7-10.8,17.4c-0.7,1.1,1,2.4,1.8,1.4c15.6-18.9,25.8-41.5,36.8-63.2
							c1.5-3,3.1-6.1,4.7-9.1c1.5-2.8,3.7-5.8,4.1-9C1333.8,1370.2,1332.6,1369.4,1331.8,1370L1331.8,1370z"/>
					</g>
				</g>
				<g>
					<g>
						<path class="st1" d="M1311.8,1385c-2.2,3.3-3.7,6.9-5.4,10.5c-1.7,3.5-3.4,7-5.1,10.5c-3.5,7.1-7.2,14.2-11,21.2
							c-7.7,14.1-15.7,28-24.2,41.6c-4.8,7.7-9.8,15.1-14.8,22.6c-0.5,0.7,0.7,1.6,1.2,0.9c10.2-12.4,19.4-25.7,27.9-39.3
							c8.6-13.7,16.3-27.9,23.3-42.4c1.9-4,3.8-8,5.6-12.1c1.8-4.1,3.8-8.2,4.8-12.5C1314.6,1384.6,1312.6,1383.8,1311.8,1385
							L1311.8,1385z"/>
					</g>
				</g>
				<g>
					<g>
						<path class="st1" d="M1292.8,1398.7c-2.7,3.5-4.6,7.6-6.8,11.4c-2.2,3.9-4.5,7.7-6.7,11.6c-4.5,7.8-9,15.7-13.6,23.4
							c-9.3,15.6-18.7,31.2-28.3,46.7c-5.3,8.6-10.6,17.4-15.2,26.4c-0.4,0.8,0.7,1.4,1.2,0.7c10.9-14.6,20.3-30.3,29.9-45.8
							c9.6-15.4,18.8-31,27.6-46.9c2.4-4.4,4.8-8.9,7-13.4c2.3-4.4,4.8-8.8,6.3-13.6C1294.5,1398.4,1293.3,1398.1,1292.8,1398.7
							L1292.8,1398.7z"/>
					</g>
				</g>
				<g>
					<g>
						<path class="st1" d="M1271,1410.8c-1,0.8-1.5,2.1-2,3.3c-0.6,1.2-1.2,2.5-1.9,3.7c-1.2,2.4-2.4,4.9-3.6,7.3
							c-2.5,5-5.1,9.9-7.8,14.8c-5.4,9.8-11,19.5-16.8,29.2c-3.2,5.4-6.5,10.7-9.7,16c-0.7,1.1,1,2,1.7,1
							c13.7-17.8,24.9-37.5,34.5-57.8c1.3-2.8,2.7-5.6,3.8-8.5c0.6-1.4,1.2-2.9,1.7-4.3c0.5-1.4,1.4-2.8,1.2-4.4
							C1272.1,1410.7,1271.5,1410.4,1271,1410.8L1271,1410.8z"/>
					</g>
				</g>
				<g>
					<g>
						<path class="st1" d="M1250.1,1425.5c-2.9,3.9-5.2,8.2-7.6,12.4c-2.4,4.2-4.9,8.4-7.4,12.5c-5.2,8.5-10.5,16.9-15.8,25.2
							c-10.9,16.8-21.7,33.7-31.6,51.1c-2.7,4.8-5.4,9.6-8,14.5c-2.6,4.9-5.2,9.8-7.1,15c-0.1,0.3,0.4,0.5,0.5,0.2
							c2.6-4.2,4.9-8.6,7.3-13c2.4-4.3,4.9-8.5,7.5-12.7c5.2-8.5,10.7-16.9,16.2-25.3c11.1-16.6,22.4-33.1,32.6-50.3
							c2.8-4.7,5.5-9.4,8.1-14.2c2.6-4.8,5.3-9.7,6.8-14.9C1251.8,1425.2,1250.6,1424.8,1250.1,1425.5L1250.1,1425.5z"/>
					</g>
				</g>
				<g>
					<g>
						<path class="st1" d="M1226.1,1440.9c-0.2,0.1-0.5,0.2-0.7,0.3c-0.7,0.4,0.6-0.2,0,0c-0.4,0.1-0.8,0.3-1,0.4
							c-1.3,0.6-1.9,1.6-2.7,2.7c-1.8,2.5-3.6,5.1-5.4,7.7c-4.3,6.4-7.9,13.2-11.8,19.9c-5,8.6-10.2,17.1-15.3,25.7
							c-4.9,8.4-10,16.7-15.2,24.9c-5.8,9.2-12,18.2-17.9,27.4c-0.5,0.8,0.7,1.7,1.3,1c6.1-7.4,11.8-15.2,17.3-23.1
							c5.5-7.9,10.9-15.9,16.1-24.1c5.4-8.3,10.5-16.9,15.5-25.5c2.5-4.3,5-8.5,7.5-12.8c1.7-2.9,3.2-5.9,4.9-8.7
							c1.8-3,3.8-6,5.8-8.9c0.8-1.1,2.1-2.4,2.3-3.8c0-0.2,0.1-0.6,0.1-0.6c0,0.2,0.1-0.4,0.1-0.3c0.1-0.2,0.1-0.4,0-0.6
							c0-0.4,0-0.3,0,0.3c0,0,0.2-0.7,0.2-0.8C1227.5,1441.4,1226.8,1440.6,1226.1,1440.9L1226.1,1440.9z"/>
					</g>
				</g>
				<g>
					<g>
						<path class="st1" d="M1212.1,1446.4c-3.3,2.1-5.8,5.4-8.3,8.4c-2.7,3.2-5.3,6.4-7.9,9.7c-5.1,6.6-9.9,13.4-14.6,20.3
							c-9.6,14.2-18.5,28.8-26.8,43.7c-4.5,8.2-9.2,16.4-13.2,24.9c-0.6,1.2,1,2.1,1.8,1c4.7-6.7,9-13.8,13.3-20.7
							c4.5-7.2,8.9-14.5,13.4-21.7c8.9-14.3,17.9-28.5,28-42c2.7-3.6,5.4-7.1,8.2-10.6c1.4-1.8,2.9-3.5,4.3-5.2
							c1.5-1.8,2.9-3.4,4-5.4C1215.2,1447.3,1213.6,1445.5,1212.1,1446.4L1212.1,1446.4z"/>
					</g>
				</g>
				<g>
					<g>
						<path class="st1" d="M1185.1,1461.5c-6.5,6.4-11.5,14.3-16.4,21.9c-4.9,7.5-9.6,15.1-14.2,22.8c-2.5,4.2-5.1,8.5-7.8,12.6
							c-1.3,2.1,1.9,3.9,3.2,1.9c5-7.2,9.7-14.5,14.3-22c4.7-7.7,9.4-15.3,14.5-22.7c2.9-4.3,6-8.4,8.7-12.8
							C1188.2,1461.8,1186.3,1460.4,1185.1,1461.5L1185.1,1461.5z"/>
					</g>
				</g>
				<g>
					<g>
						<path class="st1" d="M1160.4,1476.8c-2.8,0.9-5.1,3.4-7.1,5.4c-2.3,2.2-4.3,4.8-6.3,7.3c-4.1,5.2-8,10.6-11.5,16.2
							c-7.3,11.5-14.1,23.3-21.1,34.9c-3.9,6.4-7.9,12.6-12.1,18.7c-0.8,1.1,1,2.5,1.9,1.5c9.2-9.8,16.1-21.3,22.9-32.8
							c6.8-11.5,13.5-23.2,21.3-34.1c2.1-2.9,4.4-5.7,6.6-8.5c1.1-1.4,2.2-2.8,3.4-4.2c1-1.2,2-2.6,2.6-4.1
							C1160.9,1477,1160.7,1476.8,1160.4,1476.8L1160.4,1476.8z"/>
					</g>
				</g>
				<g>
					<g>
						<path class="st1" d="M1134.4,1487.6c-0.8,0.8-1.7,1.5-2.6,2.2c-0.8,0.8-1.5,1.7-2.2,2.6c-1.4,1.8-2.6,3.7-3.8,5.6
							c-2.4,3.9-4.8,7.8-7.2,11.7c-4.7,8-9.4,16-14.9,23.6c-0.7,0.9-0.2,2.3,0.8,2.9c1.1,0.6,2.2,0.1,2.9-0.8
							c5.7-7.4,10.8-15.2,15.6-23.2c2.4-3.9,4.6-7.9,6.9-11.9c1.1-1.9,2.3-3.8,3.2-5.8c0.5-1.1,1-2.1,1.4-3.2c0.4-1.1,0.6-2.1,1-3.2
							C1135.8,1487.6,1134.9,1487.2,1134.4,1487.6L1134.4,1487.6z"/>
					</g>
				</g>
				<g>
					<g>
						<path class="st1" d="M1105.2,1503.5c-3.6,3.8-6.2,8.2-8.9,12.7c-2.8,4.7-5.4,9.5-8,14.3c-5.3,9.7-10.6,19.5-16.3,29
							c-3.2,5.3-6.5,10.6-10,15.8c-0.7,1.1,0.9,2.4,1.8,1.4c7.4-8.3,13.7-17.7,19.2-27.3c5.5-9.7,10.7-19.5,15.8-29.3
							c2.7-5.2,5.5-10.4,7.5-15.9C1106.6,1503.5,1105.6,1503,1105.2,1503.5L1105.2,1503.5z"/>
					</g>
				</g>
				<g>
					<g>
						<path class="st1" d="M1079.3,1516.6c-6.3,5.3-10.2,13.1-14.3,20.2c-4.1,7.2-8,14.5-12.1,21.7c-2.3,4-4.4,8-6.7,12
							c-0.7,1.2,1.1,2.3,1.9,1.1c9.5-13.5,17.5-27.9,26.4-41.7c2.5-3.9,4.9-7.9,6.6-12.2C1081.5,1516.6,1080,1516,1079.3,1516.6
							L1079.3,1516.6z"/>
					</g>
				</g>
				<g>
					<g>
						<path class="st1" d="M1058.8,1523.4c-1.1,1-2.2,2-3.2,3.1c-1.2,1.3-2.2,2.9-3.2,4.4c-2.2,3.3-4,6.9-5.9,10.4
							c-4,7.3-8,14.8-11.3,22.4c-1.5,3.5-3.2,7-4.7,10.5c-0.3,0.8,0.7,1.9,1.3,1c4.5-5.8,8-12.4,11.5-18.8c4-7.3,7.5-14.9,11.7-22.1
							c1.9-3.3,3.4-6.7,5.1-10C1060.6,1523.6,1059.6,1522.7,1058.8,1523.4L1058.8,1523.4z"/>
					</g>
				</g>
				<g>
					<g>
						<path class="st1" d="M1037.3,1532.5c-4,3.7-6.7,8.7-9.2,13.4c-2.9,5.6-5.7,11.3-8.4,17c-1.2,2.6-2.5,5.2-3.8,7.7
							c-0.4,0.8,0.6,1.7,1.3,1c1.8-1.8,3-3.8,4.2-5.9c1.5-2.6,2.9-5.3,4.2-8c2.7-5.7,5.5-11.3,8.6-16.8c1.3-2.4,2.7-4.8,4.6-6.9
							C1039.7,1533,1038.3,1531.6,1037.3,1532.5L1037.3,1532.5z"/>
					</g>
				</g>
				<g>
					<g>
						<path class="st1" d="M1015.9,1541.8c-3.1,4.4-5.3,9.2-7.7,14c-2.3,4.5-4.2,9.3-6.8,13.7c-0.4,0.7,0.6,1.4,1.1,0.8
							c1.5-1.6,2.6-3.4,3.7-5.3c1.5-2.5,2.9-5.1,4.2-7.7c1.3-2.7,2.6-5.4,4-8.1c1.1-2.2,1.9-4.4,3-6.6
							C1017.8,1541.7,1016.5,1540.9,1015.9,1541.8L1015.9,1541.8z"/>
					</g>
				</g>
				<g>
					<g>
						<path class="st1" d="M1366.5,1374.7c-0.3,9-2.3,17.7-5,26.3c-2.8,8.7-6.5,17.1-10.9,25.1c-4.5,8.3-9.3,16.4-14.6,24.2
							c-5.3,7.8-10.9,15.3-16.5,22.8c-3,4.1-6.1,8.1-9.1,12.2c-2.8,3.9-5.7,7.8-8,12.1c-0.5,0.9,0.7,1.9,1.4,1.1
							c6.3-6.3,11.6-13.6,17-20.7c5.8-7.5,11.3-15.2,16.6-23.1c10.5-15.7,19.9-32.2,25.3-50.4c2.9-9.6,4.2-19.7,3.9-29.7
							C1366.7,1374.6,1366.5,1374.6,1366.5,1374.7L1366.5,1374.7z"/>
					</g>
				</g>
				<g>
					<g>
						<path class="st1" d="M1361.3,1424.4c-5.6,11.6-11.2,23.4-17.8,34.5c-6.6,11.1-14.2,21.5-22.6,31.3
							c-4.8,5.6-10.1,10.9-14.9,16.5c-0.8,1,0.2,2.7,1.5,1.9c5.7-3.5,10.8-8.2,15.4-12.9c4.6-4.8,8.9-9.9,12.8-15.3
							c7.8-10.6,14.6-22.1,19.6-34.2c2.9-7,5.3-14,6.9-21.4C1362.4,1424.3,1361.5,1423.8,1361.3,1424.4L1361.3,1424.4z"/>
					</g>
				</g>
				<g>
					<g>
						<path class="st1" d="M1339.1,1493.5c-3,3-6.2,5.7-9.4,8.5c-3.3,2.8-6.7,5.5-10.2,8.1c-7.5,5.3-15.5,10.2-23.4,14.8
							c-4.3,2.5-8.5,5-12.8,7.5c-1.1,0.7-0.1,2.2,1,1.7c8.5-3.6,16.9-7.3,25-11.6c8.1-4.4,16.2-9.6,22.8-16
							c3.6-3.5,6.4-7.3,8.6-11.7C1341.1,1493.8,1339.9,1492.7,1339.1,1493.5L1339.1,1493.5z"/>
					</g>
				</g>
				<g>
					<g>
						<path class="st1" d="M1234.7,1563.1c2.5,1.1,5.7,0.4,8.3-0.1c2.7-0.5,5.4-1.2,8-2c5.4-1.7,10.6-4,15.8-6.4
							c10.5-4.8,20.4-10.7,30.3-16.6c5.5-3.3,11-6.4,16.1-10.3c0.5-0.4,0.2-1.4-0.5-1.1c-5.2,1.9-10,4.7-14.7,7.6
							c-4.9,3-9.8,6-14.8,8.9c-9.8,5.6-19.8,10.9-30.7,14.2c-3,0.9-6.1,1.7-9.2,2.4c-1.5,0.3-3,0.5-4.4,0.8
							c-1.4,0.3-3.1,0.8-4.3,1.6C1234.1,1562.3,1234.2,1562.9,1234.7,1563.1L1234.7,1563.1z"/>
					</g>
				</g>
				<g>
					<g>
						<path class="st1" d="M1210.5,1583.5c6.1-0.4,12.1-2,17.9-3.8c6.1-1.8,12-4.1,17.9-6.4c5.9-2.4,11.6-5.3,17.3-8.3
							c5.6-3,11.2-6.1,16.7-9.3c3-1.7,6.1-3.5,9.1-5.2c1.5-0.9,3-1.7,4.4-2.6c1.6-1,3-1.8,4.1-3.3c0.5-0.6-0.2-1.7-0.9-1.6
							c-1.6,0.1-2.8,0.7-4.2,1.4c-1.4,0.7-2.8,1.4-4.2,2.2c-2.7,1.5-5.3,3-8,4.5c-5.5,3.1-11,6.2-16.4,9.2
							c-5.5,3.1-11.2,5.8-16.8,8.8c-5.6,3-11.3,5.7-17.3,7.9c-6.5,2.4-13.1,4-19.8,5.8C1210.1,1583,1210.2,1583.6,1210.5,1583.5
							L1210.5,1583.5z"/>
					</g>
				</g>
				<g>
					<g>
						<path class="st1" d="M1176.2,1597.2c2.3,0.7,4.5,1.3,6.9,1.3c2.4,0,4.8,0,7.3-0.1c4.9-0.2,9.9-0.7,14.8-1.4
							c9.7-1.5,19.2-3.8,28.6-6.7c2.6-0.8,5.3-1.6,7.9-2.6c2.5-0.9,5.2-2.1,7.1-3.9c0.4-0.4,0.1-1.1-0.5-1.1c-2.4-0.1-4.7,0.6-7,1.2
							c-2.3,0.6-4.5,1.5-6.8,2.2c-4.6,1.5-9.3,2.8-13.9,3.9c-9.3,2.3-18.8,4-28.3,4.8c-2.7,0.2-5.5,0.4-8.2,0.5
							c-2.7,0.1-5.2,0.5-7.9,1C1175.7,1596.3,1175.8,1597,1176.2,1597.2L1176.2,1597.2z"/>
					</g>
				</g>
				<g>
					<g>
						<path class="st1" d="M1153,1607.9c2.9,2.1,6.6,2.9,10.1,3.5c4,0.7,8.1,1.1,12.2,1.1c4.1,0.1,8.2-0.2,12.3-0.8
							c2-0.3,3.9-0.6,5.8-1.3c1.6-0.5,3.9-1,4.6-2.7c0.1-0.3-0.1-0.8-0.4-1c-1.5-0.8-3.8,0.2-5.3,0.5c-1.8,0.4-3.6,0.7-5.4,1
							c-3.9,0.6-7.8,0.8-11.7,0.8c-3.9,0-7.7-0.4-11.6-0.8c-3.4-0.4-6.9-1.2-10.3-1C1152.9,1607.3,1152.8,1607.7,1153,1607.9
							L1153,1607.9z"/>
					</g>
				</g>
				<g>
					<g>
						<path class="st1" d="M1132.3,1615.1c2.5,2.9,6.8,4.3,10.5,4.9c2.2,0.4,4.2,0.6,6.4,0.4c2.3-0.2,4.5-0.3,6.8-0.7
							c1.3-0.2,1-2.4-0.3-2.2c-4.1,0.4-8.2,0.2-12.3-0.3c-1.9-0.3-3.8-0.6-5.7-1c-1.7-0.4-3.4-1-5.1-1.4
							C1132.3,1614.6,1132.1,1614.9,1132.3,1615.1L1132.3,1615.1z"/>
					</g>
				</g>
			</g>
			<g>
				<g>
					<g>
						<path class="st1" d="M963.1,1188.7c-3.7,3.6-7.2,7.2-10.4,11.2c-3,3.9-5.8,8-8.5,12.1c-5.4,8.2-10.1,16.9-14.2,25.8
							c-8.2,17.7-13.9,36.7-17,55.9c-1.8,11-2.9,22.2-3.4,33.4c-0.1,1.2,1.8,1.2,1.8,0c1.2-19.5,4.3-39,9.8-57.8
							c5.4-18.5,13.1-36.4,23.2-52.9c2.9-4.7,5.9-9.2,9.1-13.6c3.3-4.6,6.5-9.3,9.8-13.9C963.4,1188.8,963.2,1188.7,963.1,1188.7
							L963.1,1188.7z"/>
					</g>
				</g>
				<g>
					<g>
						<path class="st1" d="M982.9,1175.5c-2.9,1.8-5.5,3.8-7.8,6.4c-2.5,2.8-4.6,5.9-6.5,9.1c-4.1,7.1-7.2,14.8-9.6,22.6
							c-5.1,16.5-7.8,33.7-9.9,50.8c-1,8.2-1.7,16.4-2.5,24.5c-0.1,0.9,1.5,1.2,1.7,0.2c2.4-15.2,4.2-30.5,7.1-45.6
							c3.2-16.3,6.9-32.9,14.4-47.9c1.8-3.7,3.9-7.2,6.2-10.6c1.1-1.6,2.4-3.1,3.5-4.7c1.1-1.5,2.3-3,3.6-4.4
							C983.2,1175.6,983,1175.4,982.9,1175.5L982.9,1175.5z"/>
					</g>
				</g>
				<g>
					<g>
						<path class="st1" d="M1013,1151.1c-2.3,0.9-4.4,2.2-6,4.1c-1.8,2.1-3.4,4.4-4.8,6.7c-3.2,5.4-5.7,11.3-7.9,17.2
							c-4.6,12.7-7.6,25.8-10.4,39c-1.2,5.9-2.3,11.9-3.5,17.8c-0.3,1.5,1.9,2.2,2.3,0.6c3.2-11.1,5.5-22.4,8.5-33.6
							c3.3-12.4,6.8-25.2,12.9-36.6c1.4-2.6,2.9-5.1,4.7-7.4c1.7-2.1,3.3-4.3,5-6.4C1014.4,1152,1013.9,1150.7,1013,1151.1
							L1013,1151.1z"/>
					</g>
				</g>
				<g>
					<g>
						<path class="st1" d="M1049.8,1135.1c-2,0.4-3.5,1.7-5,3c-1.5,1.3-2.7,2.9-3.9,4.4c-2.6,3.3-4.9,6.9-6.9,10.6
							c-4.5,8.2-7.8,17.1-10.4,26.1c-5.6,18.8-8.7,38.3-11.2,57.8c-1.2,8.9-2.3,17.8-3.7,26.7c-0.1,0.9,1.1,1.3,1.4,0.4
							c1.8-7.5,3.1-15.2,4.6-22.8c1.7-9.3,3.5-18.5,5.3-27.8c3.8-18.6,8.1-37.5,16.4-54.7c2-4.2,4.3-8.3,7-12.1
							c1.2-1.7,2.4-3.2,3.9-4.8c1.4-1.5,3-3.3,3.9-5.3C1051.4,1135.8,1050.8,1134.9,1049.8,1135.1L1049.8,1135.1z"/>
					</g>
				</g>
				<g>
					<g>
						<path class="st1" d="M1076.5,1127.2c-1.5,0.1-2.4,0.7-3.5,1.6c-1,0.8-1.8,1.7-2.6,2.7c-1.9,2.4-3.5,5-5,7.7
							c-3.5,6.7-6.1,13.9-8.3,21.1c-4.9,16-8.2,32.4-10.9,48.9c-1.1,6.7-2.1,13.5-3.4,20.2c-0.2,1,1.2,1.4,1.6,0.4
							c1.7-5.5,3-11.1,4.3-16.8c1.8-7.7,3.4-15.3,5.2-23c3.6-15.5,7-31.5,13.6-46.1c1.4-3.1,3-6.2,5-9c0.8-1.1,1.5-2,2.5-3.1
							c0.9-1.1,1.9-1.9,2.6-3.1C1077.7,1128.1,1077.3,1127.1,1076.5,1127.2L1076.5,1127.2z"/>
					</g>
				</g>
				<g>
					<g>
						<path class="st1" d="M1103.9,1122.1c-4.4,6.1-7.3,13.2-9.5,20.3c-2.4,7.5-3.8,15.4-5.1,23.1c-0.7,4.2-1.4,8.3-2,12.5
							c-0.2,1.4,1.8,2,2.2,0.6c2.2-7.1,3.6-14.5,5.3-21.8c1.7-7.6,3.6-15.2,6.6-22.4c1.5-3.7,3.4-7.3,5.7-10.6
							C1108.3,1122,1105.2,1120.3,1103.9,1122.1L1103.9,1122.1z"/>
					</g>
				</g>
				<g>
					<g>
						<path class="st1" d="M1126.5,1122c3.1,10.6,5.6,21.3,7.2,32.2c1.6,11,2.3,22,2.8,33.2c0.3,6.2,0.3,12.4,0.5,18.6
							c0.1,1.8,2.5,1.7,2.7,0c1.4-11.1,1.3-22.3,0.4-33.4c-0.9-11.3-2.6-22.5-5.3-33.5c-1.5-6-3.3-12-5.6-17.7
							C1128.5,1119.7,1126,1120.3,1126.5,1122L1126.5,1122z"/>
					</g>
				</g>
				<g>
					<g>
						<path class="st1" d="M1148.6,1121.8c1.6,3.2,3,6.4,4.5,9.6c1.6,3.2,3.2,6.4,4.6,9.7c3,6.8,5.7,13.8,8.1,20.8
							c4.9,14.3,8.1,29.1,9.4,44.2c0.4,4.1,0.4,8.2,0.5,12.4c0.1,4.1,0.1,8.2-0.2,12.4c-0.1,1.2,1.9,1.5,2.1,0.3
							c0.8-3.6,1.3-7.3,1.7-11c0.4-3.7,0.4-7.4,0.3-11.1c-0.2-7.7-1.3-15.3-2.7-22.9c-3-15.1-8.2-29.9-15-43.7
							c-1.8-3.7-3.8-7.4-5.8-11c-2-3.5-4.4-6.8-6.8-10.1C1148.9,1121,1148.3,1121.4,1148.6,1121.8L1148.6,1121.8z"/>
					</g>
				</g>
				<g>
					<g>
						<path class="st1" d="M1172.9,1124.6c1.7,4.5,3.8,8.8,5.8,13.1c2,4.3,3.9,8.7,5.7,13.2c3.7,9.2,7,18.6,9.9,28.1
							c5.7,19.1,9.6,38.7,12.3,58.5c1.4,10.5,2.4,21.1,3.2,31.7c0.1,1.3,2,1.3,2.1,0c1.3-19.6-0.7-39.2-4.4-58.4
							c-3.8-19.8-9.6-39.4-17.4-57.9c-2.2-5.1-4.5-10.1-6.9-15.1c-2.4-4.9-4.9-9.6-8.3-14
							C1174.2,1122.9,1172.5,1123.3,1172.9,1124.6L1172.9,1124.6z"/>
					</g>
				</g>
				<g>
					<g>
						<path class="st1" d="M1206.1,1137.4c3.3,2.5,6.5,4.8,9.4,7.9c3.1,3.3,5.4,6.6,7.8,10.6c5.1,8.7,8.2,18,10.8,27.8
							c1.4,5.3,2.5,10.7,3.5,16.1c0.5,2.8,1,5.6,1.4,8.4c0.4,2.9,0.7,5.1,1.1,8c1.3,10.8,2,21.6,2.8,32.4c0.7,9.1,1.5,18.1,2.2,27.1
							c0.1,1,0.2,1.9,0.4,2.8c0.2,1.4,2.1,0.9,2.2-0.3c0.4-4,0.3-8.2,0.5-12.2c0.2-4.8,0.1-9.6,0-14.4c-0.2-10.9-1-21.7-2.2-32.6
							c-1.3-11.4-3-22.8-5.8-34c-2.6-10.2-6-20.3-11.2-29.5c-2.3-4.1-5-8.1-8.2-11.6c-2.9-3.1-6.3-6.3-10.2-8.2
							c-0.9-0.4-2.1-0.9-3.2-1.2C1205.5,1134.1,1204.8,1136.5,1206.1,1137.4L1206.1,1137.4z"/>
					</g>
				</g>
				<g>
					<g>
						<path class="st1" d="M1244.6,1156c0.6,1.8,1.8,3.3,3,4.7c1.3,1.6,2.4,3.2,3.6,4.8c2.6,3.6,5.2,7.3,7.5,11.1
							c5.2,8.5,9.8,17.5,13.9,26.6c4.3,9.5,8,19.2,11.3,29.2c3.2,9.6,5.9,19.3,7.9,29.2c0.5,2.6,1,5.2,1.5,7.7
							c0.2,1.2,0.4,2.4,0.6,3.6c0.1,0.6,0.2,1.2,0.3,1.8c-0.1-0.6,0,0.3,0,0.4c0,0.3,0.1,0.6,0.1,0.9c0.1,0.7,0.2,1.5,0.3,2.2
							c-0.1-0.6,0,0.3,0,0.4c0,0.4,0.1,0.7,0.1,1.1c0.1,1.1,0.2,2.2,0.3,3.3c0.2,2.3,0.2,4.5,0.7,6.7c0.5,2,3.4,1.8,3.9,0
							c0.6-2,0.6-4.1,0.6-6.2c0-2,0-4-0.1-6c-0.2-4.6-0.8-9.3-1.6-13.8c-1.7-10-4.4-19.8-7.5-29.4c-3.3-10.3-7.4-20.4-11.9-30.2
							c-4.3-9.3-9.1-18.3-14.8-26.9c-2.9-4.4-6-8.6-9.3-12.7c-1.5-1.8-3.1-3.5-4.8-5.2c-1.5-1.5-3.1-3-5.2-3.6
							C1244.9,1155.4,1244.5,1155.7,1244.6,1156L1244.6,1156z"/>
					</g>
				</g>
				<g>
					<g>
						<path class="st1" d="M1286.5,1186.6c0.8,1.7,2.1,3.1,3.2,4.6c1.1,1.6,2.2,3.2,3.3,4.8c2.2,3.3,4.1,6.8,5.9,10.4
							c3.9,7.6,6.7,15.5,9.2,23.6c5.3,16.7,8.3,34.3,8.8,51.8c0.1,4.7,0.1,9.5,0,14.2c-0.1,4.7-0.2,9.3-0.7,13.9
							c-0.2,1.7,2.7,2.1,3,0.4c0.9-4.2,1.8-8.3,2.2-12.5c0.4-4.3,0.7-8.7,0.6-13c-0.1-9.1-0.9-18.2-2.4-27.2
							c-2.8-17.5-8.4-34.5-16.6-50.2c-2.2-4.1-4.5-8.1-7.2-12c-1.3-1.8-2.6-3.6-4-5.4c-1.3-1.7-2.6-3.4-4.3-4.7
							C1286.9,1184.9,1286.1,1185.9,1286.5,1186.6L1286.5,1186.6z"/>
					</g>
				</g>
				<g>
					<g>
						<path class="st1" d="M902.5,1273c-0.8,0.9-1.6,1.8-2.2,2.9c-0.6,1.2-1.2,2.5-1.7,3.7c-1.1,2.7-1.8,5.5-2.5,8.4
							c-1.4,6.2-2,12.6-2.4,18.9c-0.8,13.7-0.1,27.4,0.8,41c0.4,6.7,0.9,13.3,1,20c0,0.6,0.9,0.6,1,0c0.3-12.4-0.6-24.8-1-37.1
							c-0.4-13.2-0.6-26.7,1.9-39.8c1.2-6.2,3.3-11.9,5.4-17.8C902.9,1273,902.6,1272.8,902.5,1273L902.5,1273z"/>
					</g>
				</g>
				<g>
					<g>
						<path class="st1" d="M952.1,1197.7c-1,1.4-2,2.9-2.8,4.5c-0.7,1.6-1.4,3.2-2.1,4.8c-1.4,3.4-2.5,6.9-3.5,10.4
							c-2.1,7.3-3.8,14.7-5.3,22.2c-2.9,15.3-4.7,30.8-6,46.3c-0.7,8-1.6,16.1-1.7,24.1c0,0.8,1.3,1,1.4,0.2c1.5-6.9,2.2-14,3-21
							c0.9-7.6,1.9-15.1,2.9-22.7c1.9-15.2,4.2-30.4,8.2-45.3c1.1-4,2.3-7.9,3.6-11.8c1.2-3.7,2.3-7.5,3.3-11.3
							C953.4,1197.5,952.5,1197.2,952.1,1197.7L952.1,1197.7z"/>
					</g>
				</g>
				<g>
					<g>
						<path class="st1" d="M986.1,1169.9c-2.7,5.1-4.1,10.7-5.7,16.2c-1.6,5.7-3,11.3-4.3,17.1c-2.6,11.4-4.6,23.1-6,34.7
							c-0.8,6.4-1.5,12.9-2.2,19.4c-0.1,0.6,0.9,0.7,1,0.1c1.9-11.3,4.1-22.7,6.3-34c2.2-11.4,4.7-22.8,7.7-34
							c1.6-6.3,3.9-12.5,4.9-18.9C987.9,1169.7,986.6,1168.9,986.1,1169.9L986.1,1169.9z"/>
					</g>
				</g>
				<g>
					<g>
						<path class="st1" d="M1024.9,1148.7c-0.4,0.1-0.7,0.3-1.1,0.4c-0.7,0.2-1.2,0.6-1.8,1.1c-0.9,0.8-1.8,1.6-2.5,2.6
							c-1.5,2-2.8,4.1-4,6.3c-2.8,5.2-4.8,10.8-6.5,16.4c-3.7,12.1-6.2,24.6-8.4,37.1c-1,5.6-2,11.3-2.9,16.9
							c-0.2,1.2,1.4,1.7,1.8,0.5c1.7-4.6,2.7-9.3,3.8-14.1c1.4-5.8,2.7-11.7,3.9-17.6c2.5-11.9,5.4-23.8,10.3-35
							c1.2-2.6,2.5-5.2,4-7.6c0.7-1,1.4-2,2.1-3.1c0.3-0.5,0.7-0.9,1-1.4c0.3-0.5,0.4-1.1,0.7-1.6
							C1025.9,1149.2,1025.4,1148.5,1024.9,1148.7L1024.9,1148.7z"/>
					</g>
				</g>
				<g>
					<g>
						<path class="st1" d="M1060.2,1133.1c-5.4,4.8-8.2,11.8-10.7,18.4c-2.7,7.2-4.8,14.7-6.5,22.2c-0.9,4.1-1.9,8.2-3,12.3
							c-0.3,1,1.2,1.4,1.6,0.4c2.4-7,4.5-14.1,6.6-21.2c2.2-7.1,4.3-14.3,7.5-21.1c1.7-3.5,3.6-7,5.4-10.4
							C1061.6,1133.2,1060.8,1132.6,1060.2,1133.1L1060.2,1133.1z"/>
					</g>
				</g>
				<g>
					<g>
						<path class="st1" d="M1093.3,1123.4c-4.1,1.5-6.8,6.1-8.7,9.8c-2.4,4.6-4.2,9.6-5.7,14.5c-1.6,5.3-2.8,10.7-3.9,16.2
							c-1,5.3-2.1,10.6-3,16c-0.9,5.1-1.8,10.2-3.1,15.3c-0.3,1.1,1.3,1.8,1.8,0.8c4-8.8,5.4-18.7,7.3-28.1
							c2.1-10.3,4.1-21,8.5-30.7c1.1-2.3,2.3-4.6,3.8-6.7c1.3-1.9,2.9-3.7,4-5.6C1094.8,1124.1,1094.1,1123.1,1093.3,1123.4
							L1093.3,1123.4z"/>
					</g>
				</g>
				<g>
					<g>
						<path class="st1" d="M1116.6,1121.6c-0.4,19.5-0.1,39.1-2.1,58.5c-0.6,5.5-1.2,11.1-1.8,16.6c-0.1,0.8,1.1,0.9,1.3,0.2
							c3-9.5,3.9-19.3,4.5-29.2c0.6-9.8,0.2-19.7-0.1-29.5c-0.1-5.5-0.3-11-0.4-16.6C1118,1120.7,1116.6,1120.7,1116.6,1121.6
							L1116.6,1121.6z"/>
					</g>
				</g>
				<g>
					<g>
						<path class="st1" d="M1135.5,1121.6c0,1.4,0.5,2.6,0.8,4c0.3,1.4,0.7,2.8,1.2,4.3c0.9,2.8,1.9,5.6,2.8,8.4
							c1.8,5.5,3.5,11,5,16.6c2.9,11.3,5.3,22.7,6.4,34.4c0.3,3.3,0.4,6.7,0.7,10c0.2,3.5,0.2,7.1,0.5,10.6c0.1,1.5,2.4,2,2.8,0.4
							c1.5-6,1.7-12.4,1.5-18.5c-0.2-6.2-0.8-12.3-1.9-18.4c-2.2-11.7-5.7-23-10.1-34.1c-1.3-3.2-2.5-6.4-4-9.4
							c-0.7-1.5-1.4-2.9-2.3-4.3c-0.9-1.4-1.6-2.9-2.8-4.1C1135.8,1121.4,1135.5,1121.5,1135.5,1121.6L1135.5,1121.6z"/>
					</g>
				</g>
				<g>
					<g>
						<path class="st1" d="M1159.8,1123.5c4.2,8,8.7,16,12.6,24.1c4.1,8.4,7.8,17,10.8,25.9c1.7,4.9,3.1,10,5.2,14.7
							c0.6,1.3,2.7,0.6,2.7-0.7c-0.2-4.6-1.5-9.3-3-13.7c-1.5-4.5-3.2-9-5-13.3c-3.7-8.8-8.1-17.5-13.1-25.6
							c-2.7-4.4-5.4-8.6-8.5-12.6C1160.7,1121.2,1159.3,1122.5,1159.8,1123.5L1159.8,1123.5z"/>
					</g>
				</g>
				<g>
					<g>
						<path class="st1" d="M1189.2,1129.9c1.4,2.5,3,4.9,4.6,7.3c1.6,2.6,3.1,5.4,4.6,8.1c3,5.7,5.6,11.7,8,17.7
							c5.1,12.6,8.8,25.6,12.1,38.7c1.6,6.4,2.8,13,4.9,19.2c0.7,2,4.1,1.8,3.9-0.5c-0.4-6-1.8-11.9-3.1-17.8
							c-1.5-6.5-3.2-13-5.1-19.4c-3.9-13.3-8.6-26.5-15.7-38.5c-1.9-3.1-3.9-6.1-6.2-8.9c-2-2.5-4.3-5-7.1-6.8
							C1189.5,1128.7,1188.9,1129.3,1189.2,1129.9L1189.2,1129.9z"/>
					</g>
				</g>
				<g>
					<g>
						<path class="st1" d="M1229.3,1144.9c5.3,3.9,9.5,9,13,14.5c4.5,7,8.1,14.6,11.2,22.2c6.9,16.5,11.9,33.8,15.7,51.2
							c1.6,7.4,3.5,14.7,4.7,22.2c0.3,1.6,2.8,1.2,2.8-0.4c-0.6-15.5-4.3-30.8-8.9-45.6c-2.8-9-5.9-17.8-9.6-26.4
							c-3.4-8-7.3-15.8-12.2-23c-4.2-6.1-9.2-12.8-16.2-15.9C1229.2,1143.5,1228.6,1144.4,1229.3,1144.9L1229.3,1144.9z"/>
					</g>
				</g>
				<g>
					<g>
						<path class="st1" d="M1270,1170.5c2.2,5.2,5,10.2,7.4,15.3c3,6.2,5.7,12.6,8.4,19c5.5,13.1,10.3,26.4,13.7,40.1
							c0.8,3.4,1.5,6.8,2,10.3c0.2,1.6,0.6,3.2,0.9,4.7c0.2,1.5,0.3,2.9,0.6,4.4c0.3,1.4,2.2,1.2,2.6,0c0.8-2.6,0.8-5.7,0.8-8.5
							c0-3.2-0.6-6.5-1.2-9.7c-1.2-6.8-3.3-13.5-5.6-20c-2.5-7.1-5.3-14-8.5-20.7c-3-6.4-6.3-12.6-9.8-18.7
							c-3.2-5.7-6.4-11.6-10.8-16.5C1270.4,1169.9,1269.9,1170.1,1270,1170.5L1270,1170.5z"/>
					</g>
				</g>
				<g>
					<g>
						<path class="st1" d="M1312.7,1213.6c0.1,0.1,0.2,0.2,0.3,0.4c0.2,0.2,0,0.1,0.1-0.1c-0.2,0.3-0.2,0.9,0,1.2
							c1.1,1.4,1.5,3,2.2,4.5c0.9,2,1.7,4.1,2.5,6.4c2.1,5.8,3.8,11.8,5.5,17.8c3.6,12.9,6.5,26,9.4,39.2c1,4.8,2.1,9.5,3.5,14.2
							c0.4,1.3,2.1,0.9,2.2-0.3c0.4-4.3-0.3-8.8-1.1-13.1c-1.1-6.2-2.6-12.4-4.1-18.5c-3.2-13-6.7-26.2-11.5-38.8
							c-1-2.6-2.1-5.3-3.3-7.8c-0.9-1.8-2.1-3.4-3.4-5c-0.3-0.3-0.8-0.5-1.2-0.3c0.1,0-0.1,0-0.1,0c0.3,0,0,0-0.1-0.1
							c-0.2-0.1-0.4-0.2-0.6-0.3C1312.7,1212.9,1312.5,1213.4,1312.7,1213.6L1312.7,1213.6z"/>
					</g>
				</g>
			</g>
			<g>
				<g>
					<path class="st1" d="M1570.5,1135.6c-5.1-9.3-16.1-12.1-25.9-13c-15.4-1.4-31.2,1.5-46.2,4.6c-43.3,9.1-85.2,24.6-126.5,40.2
						c-23.8,9-47.4,18.4-71,27.8c-1.9,0.7-3.6,3.2-2.1,5.2c4.7,6.1,9.3,12.3,14,18.4c0.9,1.2,2.4,2.2,4,1.6
						c29.5-10.2,60.2-18.1,90.8-24.3c14-2.9,28.4-5.8,42.7-5.8c3.6,0,8,0.2,10.6,1.7c0.8,0.4-0.3-0.3,0.1-0.4c0.1,0-0.3,1.8,0,0.3
						c-0.1,0.5-0.2,1-0.4,1.5c-0.3,0.8-0.3,0.8-0.3,0.9c-0.3,0.6-0.6,1.2-0.9,1.8c-0.8,1.5-1.6,2.9-2.6,4.2c-2.4,3.6-5.1,7-7.8,10.3
						c-8.3,10-17.5,19.3-26.8,28.4c-28.2,27.6-58.6,52.9-89.8,77.1c-40.1,31-81.9,59.8-125.2,86.1c-39.3,23.8-80,44.8-122.4,62.8
						c-40.3,17.2-81.6,32.2-123.3,45.5c-33.4,10.6-67.1,20.3-101.4,27.6c-10.7,2.3-21.6,4.4-32.5,5.4c-3.4,0.3-6.9,0.6-10.4,0.4
						c-1.8-0.1-1.3,0-2.7-0.4c-0.2-0.1-1.4-0.4-0.8-0.2c-0.1,0,0.1-0.1,0,0.1c0,0.2-0.2-0.2-0.2-0.5c-0.1-0.5-0.2-0.9-0.1-1.6
						c0.3-2.3,1.5-4.5,2.6-6.5c3.7-6.5,8.9-12.3,14-17.7c14.1-15.1,29.9-28.7,45.9-41.8c7.9-6.5,16-12.8,24.2-18.9
						c1.2-0.9,2.2-2.4,1.6-4c-2.7-8.3-5.4-16.6-8.2-24.9c-0.7-2-3.2-3.5-5.2-2.1c-44.9,31.1-89,64-129.3,100.9
						c-17.4,15.9-34.4,32.7-48.4,51.8c-8.9,12-19,27.5-17.9,43.2c1.8,25.5,35,21.7,52.9,19.4c42.9-5.6,85-19.7,125.7-34
						c56.2-19.7,111.2-42.5,165.5-66.9c59.5-26.8,117.9-55.9,175-87.4c57.8-31.9,114.5-66,168.8-103.6
						c39.3-27.2,77.6-56.2,112.8-88.6c22.9-21,45.2-43.6,62.4-69.6c8.7-13.1,19-30.2,17-46.7
						C1572.7,1141,1571.9,1138.2,1570.5,1135.6c-2.1-4-8.2-0.5-6.1,3.6c0.4,0.7,0.6,1.3,0.5,0.9c0.2,0.6,0.4,1.2,0.6,1.8
						c0.4,1.5,0.6,2.7,0.6,3.1c0.3,3.2,0,6-0.4,8.3c-1.5,8.1-4.7,14.9-8.6,22c-12.9,23.6-31.7,44-50.7,62.9
						c-30.4,30.2-63.9,57.3-98.5,82.6c-48.3,35.4-98.9,67.6-150.6,97.8c-56.7,33.1-114.9,63.8-174.2,92.1
						c-54.9,26.2-110.6,50.5-167.4,72.3c-45.1,17.3-91,33.7-138.1,44.7c-15.5,3.6-31.3,6.8-47.2,7.5c-5.4,0.2-11.1,0.2-16.3-0.7
						c-2.1-0.4-4.2-0.9-6.2-1.7c-0.4-0.2-1.1-0.4-1.9-0.9c-0.5-0.3-2.1-1.4-1.7-1.1c-2.7-2.2-3.9-5.1-4.2-9.3
						c-0.5-6.4,1.6-12.9,4.2-18.7c8.2-17.9,22-33.3,35.5-47.3c36.9-38.4,79.7-71.4,122.7-102.6c9.8-7.1,19.8-14.2,29.7-21.1
						c-1.7-0.7-3.5-1.4-5.2-2.1c2.7,8.3,5.4,16.6,8.2,24.9c0.5-1.3,1.1-2.7,1.6-4c-17.5,13.2-34.7,27-50.9,41.8
						c-12.9,11.7-27.5,24.4-36,39.8c-3.5,6.3-5.7,16.5,3.5,18.6c7.3,1.6,15.7,0.1,23-0.9c30.4-4.3,60.5-12.5,90-21
						c42.2-12.1,83.8-26.2,124.7-42.2c42.5-16.6,84.4-35.1,124.2-57.3c47.1-26.4,92.5-56,135.9-88c35.5-26.1,69.9-53.8,102.3-83.8
						c11.4-10.6,22.6-21.4,33-32.9c6.6-7.2,13.4-14.8,18.3-23.2c2.7-4.7,5.6-11.3,0-15.1c-3.4-2.3-8-2.7-12.1-2.8
						c-6.4-0.2-12.8,0.4-19.1,1.2c-34.3,4.4-68.3,13.6-101.4,23.6c-5.8,1.7-11.6,3.6-17.3,5.5c1.3,0.5,2.7,1.1,4,1.6
						c-4.7-6.1-9.3-12.3-14-18.4c-0.7,1.7-1.4,3.5-2.1,5.2c41.1-16.4,82.2-32.8,124.1-47c19.8-6.7,39.8-13,60.1-18
						c15.8-3.9,32.1-7.4,48.4-7.7c9.6-0.2,23.7,0.2,29,9.8C1566.6,1143.1,1572.7,1139.6,1570.5,1135.6z"/>
				</g>
			</g>
			<g>
				<g>
					<g>
						<path class="st1" d="M821.6,1494c-3,2.3-6.2,4.3-9,6.8c-3.4,3.1-6.9,6.2-10.2,9.4c-7.8,7.3-15.5,14.9-22.8,22.7
							c-7.6,8.2-14.8,16.8-21.4,25.8c-5.9,8.2-11.3,16.9-15,26.3c-2.9,7.3-5.4,16.2-3.1,24c0.3,0.9,0.6,1.7,0.9,2.6
							c0.3,0.9,1.6,0.6,1.4-0.4c-0.3-1.8-0.4-3.5-0.4-5.3c0-1.9-0.1-3.8,0.1-5.7c0.4-4,1.4-8,2.7-11.8c3.2-9.2,8.4-17.7,13.9-25.6
							c6.3-9,13.3-17.4,20.7-25.5c7.2-7.9,14.6-15.5,22.3-22.9c6.2-6,12.7-11.6,18.5-18c0.6-0.6,1.2-1.3,1.8-1.9
							C822.3,1494.2,821.9,1493.7,821.6,1494L821.6,1494z"/>
					</g>
				</g>
				<g>
					<g>
						<path class="st1" d="M775.7,1575.8c-0.4,5.7,2.7,10.2,7.7,12.7c6.6,3.2,14.4,3.6,21.6,3.5c10.7-0.2,21.4-2.1,31.9-4.3
							c13-2.7,25.9-6.2,38.6-10c14.4-4.3,28.6-9.1,42.8-14.1c14.7-5.2,29.3-10.6,43.8-16.2c14-5.4,27.9-10.9,41.7-16.6
							c12.2-5,24.4-10,36.6-15.1c9.5-4,19-8.3,28.5-12.4c3.1-1.4,6.7-3,10-4.5c1.3-0.6,2.6-1.1,3.8-1.7c0.9-0.4,1.8-0.8,3-1.3
							c0.4-0.2,0.7-0.3,1.1-0.5c0.1-0.1,0.3-0.1,0.5-0.2c0.3-0.1,0.8-0.4,0,0c0.1,0,0.2-0.1,0.2-0.1c0.9-0.3,0.5-1.8-0.4-1.5
							c-0.1,0-0.2,0.1-0.2,0.1c0.5-0.1,0.1,0-0.2,0c-0.2,0-0.4,0.1-0.6,0.1c-0.4,0.1-0.8,0.2-1.2,0.3c-1.1,0.3-2.1,0.6-3.1,1
							c-2.9,1-5.8,2.1-8.6,3.2c-8.6,3.3-17.2,6.8-25.7,10.2c-11.6,4.6-23,9.6-34.6,14.3c-13.4,5.5-26.8,10.9-40.3,16.2
							c-14.3,5.6-28.7,11.1-43.1,16.3c-14.3,5.2-28.6,10.2-43.1,14.8c-13.1,4.2-26.4,8.2-39.7,11.5c-11,2.8-22.3,5.2-33.4,6.4
							c-7.9,0.9-16.5,1.6-24.2-0.1c-5-1.1-10-3.5-12-8.5c-0.4-1.1-0.9-2.3-1.1-3.6C775.9,1575.7,775.7,1575.7,775.7,1575.8
							L775.7,1575.8z"/>
					</g>
				</g>
				<g>
					<g>
						<path class="st1" d="M1394.2,1175.6c2.7,0.1,5.4,0.3,8.1-0.1c3.1-0.4,6.2-1,9.3-1.6c6.9-1.3,13.8-3.2,20.6-4.9
							c7.4-1.9,14.9-3.4,22.4-4.7c7-1.3,14.2-2.2,21.3-2.5c6.1-0.2,12.3,0,18.2,1.7c3.8,1.1,7.4,2.8,10,5.5
							c3.8,3.9,4.4,9.3,3.2,14.5c-1.7,7.3-5.9,13.9-10.2,20c-5.8,8.1-12.5,15.5-19.5,22.7c-7.9,8.1-16.2,15.8-24.7,23.3
							c-8.4,7.4-17,14.7-25.6,21.8c-7.5,6.1-15,12.1-22.6,18c-5.1,4-10.4,8-15.2,12.4c-0.4,0.3-0.7,0.7-1.1,1
							c-0.2,0.2-0.3,0.3-0.5,0.5c-0.3,0.3-0.4,0.4-0.5,0.5c-1.1,0.9,0.5,2.5,1.6,1.6c0.2-0.2-0.1,0.1,0.1-0.1
							c0.1-0.1,0.2-0.1,0.3-0.2c0.2-0.1,0.4-0.3,0.6-0.4c0.5-0.4,1-0.7,1.5-1.1c0.2-0.1-0.1,0.1,0.1-0.1c0.1-0.1,0.2-0.2,0.3-0.3
							c0.3-0.2,0.5-0.4,0.8-0.6c0.5-0.4,1.1-0.8,1.6-1.2c2.8-2.1,5.6-4.1,8.3-6.3c7.3-5.7,14.5-11.3,21.7-17.1
							c8.7-7,17.3-14.1,25.7-21.4c8.7-7.6,17.3-15.4,25.5-23.6c7.4-7.5,14.6-15.2,21-23.6c5-6.5,9.7-13.6,12.4-21.4
							c1.9-5.6,2.6-12.1-0.6-17.4c-4.4-7.5-14-9.9-22.1-10.6c-6.8-0.5-13.6,0.1-20.3,1c-7.5,1-14.9,2.4-22.2,4
							c-7.5,1.6-14.9,3.3-22.4,4.8c-6.5,1.3-12.9,2.8-19.5,3.9c-2.6,0.4-5.1,1.3-7.7,1.7C1394,1175.3,1394.1,1175.6,1394.2,1175.6
							L1394.2,1175.6z"/>
					</g>
				</g>
				<g>
					<g>
						<path class="st1" d="M1514.2,1149.4c3.6,1.5,6.6,4.1,8.9,7.3c1.1,1.5,2,3.2,3,4.8c1,1.7,1.9,3.5,2.8,5.2
							c0.2,0.3,0.7,0.1,0.6-0.3c-0.6-1.9-1.3-3.9-2.2-5.7c-0.9-1.9-2.1-3.7-3.4-5.3c-2.5-3.2-5.6-5.8-9.4-7.3
							C1513.8,1147.8,1513.4,1149,1514.2,1149.4L1514.2,1149.4z"/>
					</g>
				</g>
				<g>
					<g>
						<path class="st1" d="M1275.7,1375.9c10.6-6.8,20.9-13.9,31.1-21.3c10-7.3,19.7-14.9,29.3-22.6c19.5-15.4,38.8-31.1,58.4-46.4
							c11.1-8.7,22.5-17.1,34-25.2c0.6-0.4,0.1-1.3-0.6-1c-21,13.4-40.9,28.5-60.4,44c-19.5,15.5-38.6,31.5-58.4,46.7
							c-11.2,8.6-22.3,17.1-33.9,25.2C1275.1,1375.6,1275.4,1376.1,1275.7,1375.9L1275.7,1375.9z"/>
					</g>
				</g>
				<g>
					<g>
						<path class="st1" d="M1330.6,1359.5c20.6-15.9,41.8-31.1,62.8-46.5c21.1-15.5,41.9-31.4,62.1-48.1
							c11.3-9.4,22.3-19.2,32.7-29.7c0.6-0.6-0.3-1.5-0.9-0.9c-19.8,17.2-39.9,34-60.7,50.1c-20.5,15.9-41.5,31.3-62,47.4
							c-11.5,9-22.9,18.1-34.2,27.4C1330.2,1359.3,1330.4,1359.6,1330.6,1359.5L1330.6,1359.5z"/>
					</g>
				</g>
			</g>
		</g>
		<g>
			<g>
				<g>
					<g>
						<path class="st1" d="M860.1,511c-5.2,6.8-9.1,14.5-13,22.1c-3.9,7.8-7.6,15.7-11,23.7c-6.9,16.5-12.7,33.4-17.5,50.6
							c-10.1,36-15.8,73.2-18.3,110.5c-2.6,38.4-1.5,77,2.8,115.2c4.2,37.4,11.4,74.5,22.2,110.6c9.9,33.4,22.6,66.6,40.4,96.7
							c2.1,3.5,4.5,6.9,6.9,10.3c1.1,1.5,3.4,0.2,2.5-1.5c-15.5-30.7-30-61.8-40.6-94.6c-11.4-35.1-19.3-71.4-24.2-108
							c-5.1-37.7-6.9-75.9-5.4-113.9c1.5-37.3,6.2-74.4,15-110.7c8.3-34.1,20.3-67.5,37.2-98.4c2-3.7,3.9-7.3,5.6-11.1
							C863.4,510.7,861.2,509.5,860.1,511L860.1,511z"/>
					</g>
				</g>
				<g>
					<g>
						<path class="st1" d="M884.5,517.3c-5,39.5-3,80.3,3,119.6c5.8,38,16.2,75.2,30.4,111c14.2,35.8,32.1,70.1,53,102.4
							c21.2,32.8,45.4,63.5,71.8,92.2c26.7,29,55.5,56.2,86.5,80.5c3.8,3,7.8,5.7,11.7,8.4c2,1.4,4.4-1.7,2.6-3.3
							c-14.7-13-29.8-25.7-44.3-38.9c-14.4-13-28.3-26.5-41.7-40.5c-26.8-28-51.5-58.1-73.5-90.1c-21.6-31.5-40.4-64.9-55.5-99.9
							c-15.1-35-26.4-71.7-33.3-109.1c-7.1-38.6-9.3-78-7.2-117.2c0.3-5,0.6-10,0.9-15.1C889.1,514.5,884.9,514.6,884.5,517.3
							L884.5,517.3z"/>
					</g>
				</g>
				<g>
					<g>
						<path class="st1" d="M857.1,530.2c-1.2,19.2-4,38.1-8.1,56.8c-4.1,18.9-8.9,37.6-12.5,56.5c-3.5,18.6-5.4,37.3-5,56.3
							c0.3,16.8,1.6,33.6,3.8,50.3c4.5,34,12.5,67.5,23.6,100c11.2,32.7,25.5,64.6,43.1,94.4c17,28.8,37,56.5,60.5,80.4
							c2.8,2.9,6,5.5,9,8.2c0.7,0.6,1.7-0.3,1.1-1.1c-10.9-12.2-21.8-24.6-31.8-37.5c-10.4-13.4-20.1-27.5-28.9-42
							C894,923.3,879,892.2,867.1,860c-11.8-32.2-20.6-65.6-25.8-99.5c-5.3-34.4-7.8-70.1-2.4-104.6c5.9-37.5,18.6-73.7,21-111.7
							c0.3-4.6,0-9.3-0.3-13.9C859.5,528.6,857.2,528.6,857.1,530.2L857.1,530.2z"/>
					</g>
				</g>
				<g>
					<g>
						<path class="st1" d="M873.8,537.7c-3.5,13.7-5,27.9-6.2,42c-1.3,14.5-2.1,29.1-2.4,43.6c-0.6,29.4,0.8,58.9,4.4,88.1
							c3.6,29.4,9.5,58.7,18,87.1c8.3,27.8,19.4,55,33.2,80.5c13.7,25.4,30.3,49.2,50.3,70.2c2.5,2.6,5.1,5.1,7.8,7.5
							c0.9,0.8,2-0.4,1.3-1.3c-4.5-5.6-9.4-11-14-16.6c-4.5-5.6-9-11.4-13.2-17.2c-8.3-11.5-16.1-23.4-23.1-35.7
							c-14.4-25.1-25.8-51.9-34.7-79.4c-9-27.8-15.6-56.4-19.9-85.3c-4.3-29.1-6.4-58.4-6.5-87.8c-0.1-28.6,2.4-57,5.1-85.4
							c0.3-3.4,0.6-6.7,0.8-10.1C874.9,537.2,874,537.1,873.8,537.7L873.8,537.7z"/>
					</g>
				</g>
				<g>
					<g>
						<path class="st1" d="M824.8,1165.3c-0.6-0.7-0.8-1.1-1.5-1.6c-0.6-0.4-1.2-0.7-1.8-1c-1.1-0.6-2.2-1.3-3.2-2.1
							c-0.1-0.1-0.5-0.3-0.1,0c-0.2-0.2-0.4-0.3-0.6-0.5c-0.3-0.2-0.5-0.4-0.8-0.6c-0.5-0.4,0.1,0.1-0.3-0.3
							c-0.3-0.2-0.5-0.4-0.8-0.6c-0.9-0.8-1.7-1.6-2.5-2.5c-0.4-0.4-0.7-0.9-1.1-1.3c-0.3-0.3,0,0,0.1,0.1c-0.1-0.1-0.2-0.3-0.3-0.4
							c-0.2-0.2-0.3-0.5-0.5-0.7c-0.7-1-1.3-2-1.8-3c-0.2-0.5-0.5-1-0.7-1.4c0-0.1-0.1-0.2-0.1-0.3c-0.3-0.6,0.2,0.5,0-0.1
							c-0.1-0.3-0.2-0.6-0.3-0.8c-0.4-1.1-0.8-2.3-1.1-3.5c-0.3-1.1-0.5-2.3-0.7-3.4c0-0.2-0.2-1.2-0.1-0.4c0-0.3-0.1-0.6-0.1-0.9
							c-0.1-0.6-0.1-1.3-0.2-1.9c-0.2-2.6-0.1-5.1,0.1-7.7c0.1-0.6,0.1-1.3,0.2-1.9c0.1-0.7-0.1,0.4,0.1-0.4
							c0.1-0.4,0.1-0.8,0.2-1.1c0.2-1.3,0.5-2.7,0.8-4c0.6-2.7,1.4-5.5,2.4-8.1c0.5-1.4,1-2.8,1.6-4.1c0-0.1,0.2-0.5,0,0
							c0.1-0.2,0.1-0.3,0.2-0.5c0.1-0.3,0.3-0.6,0.4-0.9c0.3-0.7,0.6-1.4,0.9-2c1.3-2.7,2.7-5.3,4.3-7.9c0.8-1.3,1.6-2.5,2.4-3.8
							c0.4-0.6,0.8-1.2,1.3-1.8c0.2-0.3,0.4-0.6,0.6-0.8c0.1-0.2,0.2-0.3,0.3-0.5c0.1-0.1,0.6-0.8,0.2-0.2c1.8-2.3,3.8-4.6,5.8-6.7
							c2-2.1,4.2-4.1,6.5-6c0.3-0.2,0.5-0.4,0.8-0.6c0.2-0.1,0.9-0.7,0.4-0.3c0.6-0.5,1.2-0.9,1.9-1.4c1.2-0.8,2.3-1.6,3.6-2.4
							c1.2-0.7,2.4-1.4,3.7-2.1c0.6-0.3,1.2-0.6,1.8-0.9c0.3-0.2,0.6-0.3,1-0.4c0.2-0.1,1.2-0.5,0.4-0.2c2.5-1,5.2-1.9,7.8-2.5
							c0.7-0.2,1.4-0.3,2.1-0.4c0.3-0.1,0.6-0.1,0.8-0.1c0.2,0,1.6-0.2,0.6-0.1c1.3-0.2,2.6-0.3,4-0.3c1.4,0,2.8,0,4.2,0.1
							c0.6,0,1.3,0.1,1.9,0.2c0.8,0.1-0.7-0.1,0,0c0.1,0,0.3,0,0.4,0.1c0.4,0.1,0.8,0.1,1.2,0.2c2.9,0.5,5.7,1.4,8.4,2.5
							c0.5,0.2-0.7-0.3,0,0c0.1,0.1,0.3,0.1,0.4,0.2c-0.1,0,2,0.8,1.1,0.5c0.7,0.3,1.5,0.7,2.2,1c1.5,0.7,3,1.5,4.5,2.3
							c1.5,0.8,2.9,1.7,4.5,2.5c2,1,3.7-1.3,2.3-3c-2.3-2.8-5.4-5.2-8.5-7c-2.9-1.7-5.9-3-9.1-3.9c-5.8-1.7-11.9-2.2-17.9-1.5
							c-12.3,1.6-23.3,8.1-32.2,16.5c-9.1,8.7-16.2,19.5-20.9,31.2c-4.2,10.5-6.5,22.3-4.5,33.6c0.9,4.9,2.8,9.8,5.7,13.8
							c1.6,2.1,3.3,4.1,5.4,5.7c2.3,1.8,4.7,3.1,7.4,4.2c-0.4-0.2,0.3,0.1,0.5,0.2c0.2,0.1,0.3,0.1,0.5,0.1c0.3,0.1,0.7,0.2,1,0.3
							c0.8,0.1,1.6-0.1,2.3-0.2C825.1,1166.8,825.2,1165.8,824.8,1165.3L824.8,1165.3z"/>
					</g>
				</g>
				<g>
					<g>
						<path class="st1" d="M885.8,1111.9c0.2-0.8,0.4-1.5,0.4-2.3c0-0.7-0.1-1.5-0.2-2.2c-0.1-1.4-0.1-2.8,0-4.2
							c0-0.4,0.1-0.7,0.1-1.1c0-0.4-0.1,0.4,0,0c0-0.2,0-0.3,0.1-0.5c0.1-0.7,0.3-1.3,0.4-2c0.2-0.6,0.3-1.1,0.5-1.7
							c0-0.1,0.4-0.9,0.2-0.6c-0.1,0.3,0.3-0.6,0.3-0.7c0.5-1.1,1.2-2.2,1.9-3.2c0.2-0.2,0.3-0.5,0.5-0.7c0.2-0.4-0.4,0.4-0.1,0.1
							c0.1-0.1,0.2-0.2,0.3-0.3c0.4-0.5,0.9-1,1.3-1.5c0.9-0.9,1.9-1.8,2.9-2.6c0.4-0.3-0.5,0.4-0.1,0.1c0.2-0.1,0.3-0.2,0.5-0.3
							c0.3-0.2,0.5-0.4,0.8-0.5c0.6-0.4,1.1-0.7,1.7-1.1c1.2-0.7,2.5-1.4,3.7-2c0.6-0.3,1.2-0.6,1.8-0.8c-0.7,0.3,0.1,0,0.3-0.1
							c0.4-0.2,0.8-0.3,1.2-0.4c2.8-1,5.6-1.8,8.5-2.3c0.7-0.1,1.4-0.2,2.1-0.4c0.2,0,0.4,0,0.5-0.1c-0.8,0.1-0.3,0-0.1,0
							c0.4-0.1,0.9-0.1,1.3-0.2c1.5-0.2,3-0.3,4.6-0.3c3.1-0.1,6.1,0,9.2,0.4c0.2,0,0.4,0,0.5,0.1c-1-0.1-0.1,0,0.1,0
							c0.4,0.1,0.8,0.1,1.2,0.2c0.8,0.1,1.7,0.3,2.5,0.4c1.6,0.3,3.2,0.7,4.8,1.1c1.6,0.4,3.2,0.7,4.8,1.1c1.5,0.4,3.3,1.1,4.5,1.3
							c1.4,0.2,3.2-1.3,2.1-2.8c-1-1.4-2.3-2.3-3.7-3.2c-1.2-0.8-2.5-1.7-3.9-2.3c-3.1-1.3-6.3-2.2-9.6-2.8
							c-6.8-1.1-13.8-1-20.7,0.1c-6.2,1-12.5,2.9-18,6.2c-4.9,2.9-9.6,7.2-12.1,12.4c-1.4,3.1-2.2,6.3-2.3,9.7
							c-0.1,1.8,0.2,3.6,0.5,5.4c0.2,0.8,0.4,1.7,0.7,2.5c0.4,1.1,1,1.8,1.7,2.6C884.4,1113.1,885.6,1112.8,885.8,1111.9
							L885.8,1111.9z"/>
					</g>
				</g>
				<g>
					<g>
						<path class="st1" d="M918.4,1076.9c-0.3-0.5-0.5-1.1-0.8-1.7c0.1,0.3,0.2,0.7,0.3,1c0-1.1-0.5-2-0.9-3c-0.4-0.9-0.7-1.9-1-2.9
							c-0.6-1.8-0.9-3.4-1-5.1c-0.2-3.5,0.5-6.8,1.9-10c2.9-6.8,8.6-12.5,15.1-16.2c1.9-1.1,3.8-2,5.8-3c2-1,4-1.7,6-2.6
							c1.5-0.7,0.6-2.8-0.8-2.9c-4.4-0.3-9.2,1.2-13,3.3c-3.9,2.1-7.5,4.9-10.6,8.1c-5.9,6.2-10.3,14.5-9.8,23.2
							c0.1,2.4,0.5,4.8,1.4,7c0.5,1.3,1.1,2.5,1.9,3.6c0.8,1.2,1.8,2,2.8,3C917.1,1080.4,919.3,1078.6,918.4,1076.9L918.4,1076.9z"
							/>
					</g>
				</g>
				<g>
					<g>
						<path class="st1" d="M968.6,1066.3c0-0.4,0-0.8,0.1-1.1c0-0.1,0.1-0.8,0-0.1c0.1-0.6,0.1-1,0-1.6c0-0.2-0.1-0.4-0.1-0.6
							c-0.1-0.6,0,0.6,0,0c0-0.4-0.1-0.8-0.1-1.3c0-0.6,0-1.3,0-1.9c0-0.3,0.1-0.7,0.1-1c0-0.6-0.1,0.6,0,0.1c0-0.2,0.1-0.4,0.1-0.7
							c0.1-0.6,0.3-1.3,0.5-1.9c0.1-0.3,0.2-0.5,0.3-0.8c0.1-0.2,0.1-0.3,0.2-0.5c-0.3,0.8,0,0.1,0-0.1c0.3-0.6,0.6-1.1,0.9-1.7
							c0.2-0.3,0.3-0.5,0.5-0.8c0.1-0.2,0.8-1.1,0.2-0.3c0.9-1.1,1.8-2.1,2.9-3c0.2-0.2,0.4-0.4,0.7-0.5c0.1-0.1,0.7-0.5-0.1,0
							c0.1-0.1,0.3-0.2,0.4-0.3c0.6-0.4,1.2-0.9,1.9-1.3c1.2-0.8,2.5-1.4,3.9-2c0.2-0.1,0.8-0.3-0.1,0c0.2-0.1,0.3-0.1,0.5-0.2
							c0.4-0.1,0.7-0.3,1.1-0.4c0.7-0.3,1.4-0.5,2.2-0.7c1.5-0.4,3-0.8,4.6-1.1c0.4-0.1,0.8-0.1,1.2-0.2c0.2,0,0.9-0.1-0.1,0
							c0.2,0,0.4-0.1,0.6-0.1c0.9-0.1,1.7-0.2,2.6-0.2c1.6-0.1,3.3-0.1,4.9,0c0.8,0,1.7,0.1,2.5,0.2c0.3,0,0.7,0.1,1,0.1
							c-1.1-0.1,0.5,0.1,0.8,0.1c1.6,0.3,3.3,0.6,4.9,1.1c0.8,0.2,1.6,0.5,2.4,0.8c0.4,0.1,0.8,0.3,1.2,0.4c0.2,0.1,0.4,0.2,0.6,0.2
							c-1-0.4-0.1,0,0.1,0.1c1.5,0.7,3,1.5,4.4,2.3c0.7,0.4,1.3,0.8,1.9,1.3c0.2,0.1,0.3,0.3,0.5,0.4c0.6,0.4-0.6-0.5,0,0
							c0.4,0.3,0.8,0.6,1.1,0.9c1.5,1.3,2.8,2.6,4,4.1c0.1,0.2,0.6,0.8,0,0c0.2,0.2,0.3,0.5,0.5,0.7c0.3,0.4,0.6,0.8,0.9,1.3
							c0.5,0.8,1,1.7,1.5,2.5c0.2,0.5,0.5,1,0.7,1.4c0.1,0.2,0.2,0.4,0.3,0.6c0.3,0.6-0.3-0.7,0.1,0.2c0.4,1,0.7,2,1,2.9
							c0.4,1.1,0.6,2.3,1,3.4c0.2,0.8,0.4,1.6,0.8,2.3c0.3,0.5,0.7,0.9,1,1.4c1.2,1.8,3.6,1.4,4.4-0.6c0.5-1.2,0.8-2.3,0.7-3.6
							c-0.1-1.3-0.4-2.6-0.7-3.9c-0.6-2.2-1.4-4.3-2.4-6.3c-1.7-3.6-4.1-6.9-6.9-9.6c-5.4-5.3-12.4-8.7-19.8-10.2
							c-7.2-1.5-14.8-1.4-22,0.5c-6.2,1.6-12.5,4.7-16.7,9.7c-4.2,4.9-6.2,11.6-4.6,17.9c0.2,0.9,0.8,1.7,1.3,2.5
							C966.1,1068.8,968.6,1068.3,968.6,1066.3L968.6,1066.3z"/>
					</g>
				</g>
				<g>
					<g>
						<path class="st1" d="M1195.9,1017.1c-0.4-0.2-0.7-0.4-0.8-0.5c-0.1-0.1-0.1-0.6-0.2-0.8c-0.2-0.4-0.4-0.6-0.7-0.8
							c-0.8-0.6-1.9-1.2-2.7-1.5c-2.1-0.9-4.6-1.1-6.9-1.3c-4.2-0.4-8.5-0.1-12.7,0.6c-8.6,1.5-16.8,5-24,9.8
							c-14.2,9.5-26.3,24.7-29,41.9c-0.8,4.9-0.8,9.9,0.1,14.8c0.4,2.3,1.1,4.5,1.9,6.6c0.5,1.3,1.1,2.5,1.8,3.7
							c0.6,1,1.2,1.7,2.3,2.1c0.6,0.2,0.6,0.3,1.2,0.6c1,0.6,2.3-0.2,2.3-1.3c0-0.9,0.5-2.1,0.1-3.2c-0.3-1-0.8-2-1.1-3
							c-0.7-1.9-1.3-3.8-1.7-5.8c-0.2-0.9-0.4-1.8-0.5-2.8c0-0.2-0.1-0.4-0.1-0.6c-0.1-0.9,0.1,0.7,0-0.2c-0.1-0.6-0.1-1.1-0.2-1.7
							c-0.1-1.9-0.1-3.7,0-5.6c0.1-0.9,0.1-1.9,0.3-2.8c-0.1,0.7,0.1-0.6,0.1-0.8c0.1-0.6,0.2-1.1,0.3-1.7c0.4-1.9,0.9-3.8,1.6-5.7
							c0.3-0.9,0.6-1.8,1-2.7c0.1-0.2,0.1-0.4,0.2-0.5c-0.2,0.6,0.1-0.3,0.2-0.3c0.2-0.5,0.5-1.1,0.7-1.6c0.8-1.8,1.8-3.5,2.8-5.1
							c4-6.7,10-13,16.2-17.6c6.7-4.9,13.7-8.5,21.6-10.5c4.4-1.1,8.2-1.6,12.8-1.4c2.3,0.1,4,0.3,6.1,0.6c1.4,0.2,2.6,0.1,3.8,0.1
							c0.7,0,1.3,0.1,1.9-0.3c0.1-0.1,0.3-0.3,0.4-0.3c0.3-0.1,0.6,0,0.9,0.1C1196,1017.7,1196.2,1017.3,1195.9,1017.1
							L1195.9,1017.1z"/>
					</g>
				</g>
				<g>
					<g>
						<path class="st1" d="M1127.2,1055.5c-1.4-2.4-2.7-4.6-4.9-6.3c-1.9-1.5-3.8-2.9-5.9-4c-3.8-2-7.9-3.3-12.3-3.5
							c-8.4-0.4-16.2,3.4-22.5,8.5c-7.1,5.8-12.6,13.5-16.9,21.5c-4.6,8.7-8,18.1-9.7,27.8c-0.8,4.7-1.4,9.6-1.3,14.4
							c0.1,4.6,0.6,9.3,2.6,13.5c0.6,1.2,1,1.7,1.9,2.5c0.8,0.7,2.3,0.5,2.6-0.7c0.4-2,0.2-3.9,0.1-5.9c-0.1-2.1-0.3-4.1-0.4-6.2
							c-0.1-2.2-0.1-4.3,0-6.5c0-1.1,0.1-2.1,0.2-3.2c0-0.5,0.1-1.1,0.2-1.6c0-0.3,0.1-0.5,0.1-0.8c0-0.2,0.2-1.4,0.1-0.5
							c0.6-4.5,1.6-9,3-13.3c0.7-2.3,1.5-4.5,2.3-6.7c0.2-0.5,0.4-1.1,0.6-1.6c0.1-0.3,0.2-0.5,0.3-0.8c-0.3,0.7,0.1-0.1,0.1-0.2
							c0.5-1.1,1-2.2,1.5-3.3c1.9-4.1,4.2-8,6.8-11.7c0.6-0.9,1.2-1.7,1.9-2.6c0.5-0.7-0.4,0.6,0.1-0.1c0.2-0.2,0.3-0.4,0.5-0.6
							c0.4-0.5,0.8-0.9,1.2-1.4c1.4-1.6,2.8-3.1,4.3-4.6c0.6-0.6,1.3-1.2,2-1.8c0.4-0.3,0.7-0.6,1.1-0.9c0.1-0.1,0.8-0.6,0.1-0.1
							c0.3-0.2,0.5-0.4,0.8-0.6c1.5-1.1,3.1-2.1,4.8-3c0.8-0.4,1.6-0.8,2.4-1.1c-1,0.4,0.4-0.1,0.6-0.2c0.5-0.2,0.9-0.3,1.4-0.5
							c0.8-0.3,1.6-0.5,2.5-0.6c0.4-0.1,0.8-0.1,1.2-0.2c0.7-0.1-0.8,0.1-0.1,0c0.3,0,0.6-0.1,0.8-0.1c0.9-0.1,1.8-0.1,2.7-0.1
							c0.5,0,1,0.1,1.5,0.1c0.2,0,0.4,0,0.6,0.1c-1.1-0.1-0.1,0,0.2,0c1,0.2,2,0.4,3,0.7c0.5,0.2,1,0.3,1.5,0.5
							c0.2,0.1,0.4,0.2,0.6,0.3c-0.9-0.3,0.1,0.1,0.3,0.1c2.1,1,4.1,2.2,6,3.7c-0.6-0.5,0.1,0.1,0.2,0.2c0.4,0.4,0.9,0.7,1.3,1
							c0.2,0.2,0.5,0.3,0.7,0.5c0.3,0.2,0.3,0.2,0,0c0.2,0.1,0.3,0.2,0.5,0.4c1.2,0.9,2.6,1.6,3.9,2.5
							C1126.1,1059.8,1128.2,1057.3,1127.2,1055.5L1127.2,1055.5z"/>
					</g>
				</g>
				<g>
					<g>
						<path class="st1" d="M1011.2,1092.4c2.8-3.7,5.3-7.6,8.7-10.9c3.4-3.3,7.2-5.8,11.5-8c2-1,3.7-1.6,6-2.4
							c1.1-0.3,2.2-0.6,3.3-0.9c0.6-0.1,1.1-0.2,1.7-0.3c0.3,0,0.5-0.1,0.8-0.1c0.2,0,0.4-0.1,0.6-0.1c-0.3,0-0.3,0,0.1,0
							c2.3-0.2,4.5-0.3,6.8-0.2c0.6,0,1.2,0.1,1.8,0.2c-0.6-0.1,0.1,0,0.2,0c0.3,0,0.5,0.1,0.8,0.1c1.2,0.2,2.4,0.5,3.6,0.9
							c2.4,0.7,3.7,1.2,6,2.6c1.8,1.1,6.2,3.6,7.5,0.4c0.5-1.3-0.3-3.2-1.2-4.1c-1-1-2.3-1.8-3.6-2.5c-2.2-1.2-4.5-2.1-6.9-2.8
							c-9.6-2.7-20-1.2-28.9,3c-5,2.4-9.6,5.7-13.4,9.7c-3.7,3.9-7.3,8.7-8.2,14.1C1008.2,1093,1010.2,1093.8,1011.2,1092.4
							L1011.2,1092.4z"/>
					</g>
				</g>
				<g>
					<g>
						<path class="st1" d="M1113.9,1113.9c0.2-0.4,0.3-0.8,0.6-1.2c-0.3,0.2-0.6,0.5-0.9,0.7c1.7-0.3,2.4-2.9,3-4.2
							c0.7-1.6,1.7-3,2.6-4.5c1.8-3,3.4-5.2,6.1-7.7c1.4-1.3,2-1.7,3.6-2.7c0.6-0.4,1.3-0.8,2-1.1c0.4-0.2,0.8-0.4,1.2-0.6
							c0,0,0.5-0.2,0.2-0.1c-0.4,0.2,0.4-0.2,0.5-0.2c1.5-0.6,3.1-0.9,4.7-1.2c0.1,0,0.7-0.1,0,0c0.2,0,0.3,0,0.5-0.1
							c0.4,0,0.8-0.1,1.1-0.1c0.9,0,1.7,0,2.6,0.1c0.2,0,0.4,0,0.7,0.1c-0.4,0-0.2,0,0.1,0c0.5,0.1,1,0.2,1.5,0.3
							c1,0.2,1.9,0.5,2.8,0.9c0,0,0.5,0.2,0.2,0.1c-0.3-0.1,0.5,0.2,0.6,0.3c0.5,0.2,0.9,0.4,1.3,0.7c1,0.6,2.1,1.2,3.1,1.8
							c1.5,0.9,3.5,0.4,4.5-0.9c0.9-1.3,1.1-3.5-0.3-4.6c-6.7-5.2-15.5-7.2-23.7-4.4c-7.5,2.6-13.7,8.3-17.7,15.1
							c-1.1,2-1.9,4.1-2.6,6.3c-0.6,1.9-1.7,5.3,0.3,6.7c-0.2-0.3-0.5-0.6-0.7-0.9c0.1,0.4,0,0.9,0,1.3
							C1111.5,1115,1113.4,1115.1,1113.9,1113.9L1113.9,1113.9z"/>
					</g>
				</g>
				<g>
					<g>
						<path class="st1" d="M1225.6,1000.7c-8.4-6.1-18.7,0.1-24.6,6.8c-6.6,7.6-11.3,18-10.8,28.2c0.1,2.6,0.6,5.3,1.6,7.7
							c0.6,1.5,1.3,2.9,2.4,4.2c0.5,0.6,1.1,1.2,1.8,1.5c0.3,0.2,0.6,0.3,0.9,0.4c1.1,0.5-0.7-0.3,0.4,0.2c0.2,0.1,0.5,0.2,0.7,0.3
							c1.7,0.6,3.8-1.4,3.1-3.1c-0.1-0.3-0.3-0.7-0.4-1c0.1,0.4,0.1,0.1,0-0.1c-0.2-0.7-0.5-1.3-0.9-2c-0.4-0.8-0.9-1.6-1.3-2.5
							c-0.1-0.1-0.4-0.8-0.1-0.3c0.2,0.5-0.1-0.3-0.2-0.4c-0.2-0.5-0.3-0.9-0.5-1.4c-0.1-0.4-0.2-0.9-0.3-1.3c0-0.2-0.1-0.5-0.1-0.7
							c-0.2-0.8,0,0.6,0-0.2c-0.2-2.1-0.2-4.2,0.1-6.3c0.1-0.7-0.1,0.6,0-0.1c0-0.3,0.1-0.5,0.1-0.8c0.1-0.6,0.2-1.1,0.3-1.7
							c0.3-1.1,0.6-2.2,0.9-3.3c0.2-0.5,0.3-1,0.5-1.5c0.1-0.3,0.2-0.6,0.3-0.9c0.1-0.1,0.4-0.9,0.2-0.6c-0.2,0.4,0.2-0.4,0.2-0.5
							c0.1-0.2,0.2-0.5,0.3-0.7c0.2-0.5,0.5-1.1,0.8-1.6c1.1-2.1,2.3-4,3.7-5.9c0.4-0.5-0.3,0.3,0.1-0.2c0.2-0.2,0.3-0.4,0.5-0.6
							c0.4-0.4,0.7-0.9,1.1-1.3c0.7-0.8,1.5-1.6,2.3-2.3c0.4-0.3,0.7-0.6,1.1-1c0.1-0.1,0.2-0.2,0.3-0.2c0,0-0.5,0.3-0.2,0.1
							c0.3-0.2,0.5-0.4,0.8-0.6c0.8-0.6,1.6-1.1,2.5-1.6c0.5-0.3,1-0.5,1.5-0.8c0.6-0.3-0.3,0.1,0.2-0.1c0.2-0.1,0.5-0.2,0.7-0.3
							c1-0.3,2-0.6,3-0.8c0.2-0.1,0.5-0.1,0.7-0.1c0.3,0-0.1,0-0.2,0c0.1,0,0.3,0,0.4,0c0.5,0,1,0,1.5,0c1,0,2,0,3,0.2
							C1226.2,1003.8,1227,1001.7,1225.6,1000.7L1225.6,1000.7z"/>
					</g>
				</g>
				<g>
					<g>
						<path class="st1" d="M865.2,1162.2c-6-6.8-15.9-9.2-24.6-8.7c-9.1,0.6-17.7,4.1-25.2,9.1c-8.3,5.5-15.3,12.6-21.1,20.7
							c-5.8,7.9-10.3,17-12.8,26.5c-2.4,9-3.1,18.5,0,27.4c0.5,1.3,0.9,2.2,2,3.1c0.9,0.7,2.5,0.6,2.8-0.7c0.1-0.5,0.3-1.1,0.3-1.7
							c0-0.6-0.2-1.3-0.3-1.9c-0.3-1.3-0.3-1.8-0.4-2.8c-0.2-2.1-0.3-4.1-0.4-6.2c-0.1-2.1,0-4.2,0.2-6.3c0-0.5,0.1-1.1,0.2-1.6
							c0-0.3,0.1-0.5,0.1-0.8c-0.1,0.7,0-0.2,0-0.3c0.2-1.2,0.4-2.3,0.6-3.5c0.5-2.2,1-4.3,1.7-6.4c0.3-1.1,0.7-2.1,1.1-3.2
							c0.2-0.5,0.4-1.1,0.6-1.6c0.1-0.2,0.2-0.4,0.3-0.7c0.1-0.1,0.1-0.3,0.2-0.4c-0.1,0.3-0.1,0.3,0-0.1c1.9-4.3,4.1-8.5,6.7-12.4
							c0.6-1,1.3-1.9,2-2.9c0.3-0.5,0.7-0.9,1-1.4c0.1-0.2,0.2-0.3,0.3-0.5c0.1-0.1,0.7-1,0.4-0.5c1.5-1.9,3-3.7,4.7-5.5
							c1.6-1.7,3.2-3.3,4.9-4.8c0.8-0.8,1.7-1.5,2.6-2.2c0.4-0.3,0.7-0.6,1.1-0.9c0.2-0.2,0.4-0.3,0.7-0.5c0.3-0.2,0.3-0.2,0.1,0
							c0.1-0.1,0.3-0.2,0.4-0.3c3.5-2.6,7.3-5,11.3-6.8c0.5-0.2,1-0.4,1.4-0.6c-0.6,0.3,0.2-0.1,0.2-0.1c0.2-0.1,0.5-0.2,0.7-0.3
							c1-0.4,1.9-0.7,2.9-1c2-0.6,4-1.1,6.1-1.4c0.2,0,0.3,0,0.5-0.1c0.3,0,0.3,0-0.1,0c0.2,0,0.3,0,0.5-0.1
							c0.6-0.1,1.1-0.1,1.7-0.2c1.1-0.1,2.3-0.1,3.4-0.1c1.1,0,2.1,0.1,3.2,0.2c0.8,0.1-0.6-0.1,0.2,0c0.3,0.1,0.6,0.1,1,0.2
							c0.6,0.1,1.1,0.2,1.7,0.4c1.1,0.3,2.2,0.6,3.3,1c0.5,0.2,0.9,0.4,1.4,0.5c0.8,0.3-0.5-0.3,0.2,0.1c0.5,0.2,0.9,0.4,1.4,0.6
							c1.3,0.5,1.6,0.6,2.9,1.2c1.1,0.6,2.3,1.1,3.4,1.7C864.8,1166.3,866.8,1163.9,865.2,1162.2L865.2,1162.2z"/>
					</g>
				</g>
				<g>
					<g>
						<path class="st1" d="M895.9,1204.8c-0.2-2.9,0-5.5,0.3-8.4c0.3-3.4,0.5-5.9,1.3-9.2c1.5-7.1,3.9-13.5,7.2-19.7
							c1.7-3.2,3.6-6.2,5.8-9c0.5-0.7-0.2,0.3,0.1-0.1c0.1-0.2,0.3-0.3,0.4-0.5c0.3-0.3,0.5-0.7,0.8-1c0.5-0.7,1.1-1.3,1.7-1.9
							c1.1-1.2,2.3-2.4,3.6-3.5c0.6-0.5,1.2-1,1.9-1.5c-0.6,0.5,0.2-0.1,0.4-0.3c0.3-0.3,0.7-0.5,1.1-0.7c1.3-0.8,2.6-1.6,4-2.2
							c0.2-0.1,0.3-0.1,0.5-0.2c0.4-0.2-0.8,0.3-0.1,0c0.3-0.1,0.7-0.3,1-0.4c0.7-0.2,1.4-0.5,2.1-0.6c0.7-0.2,1.4-0.3,2-0.4
							c0.5-0.1-0.9,0.1-0.1,0c0.1,0,0.3,0,0.4,0c0.4,0,0.9-0.1,1.3-0.1c0.8,0,1.6,0,2.4,0.1c0.2,0,0.4,0,0.6,0.1c0.3,0,0.1,0-0.3,0
							c0.2,0,0.3,0,0.4,0.1c0.4,0.1,0.8,0.1,1.1,0.2c0.9,0.2,1.8,0.4,2.6,0.7c0.4,0.1,0.8,0.3,1.3,0.5c-0.7-0.3-0.2-0.1,0,0
							c0.3,0.1,0.5,0.3,0.8,0.4c1.8,0.9,3.5,2,5.1,3.2c-0.7-0.5,0.3,0.3,0.6,0.5c0.3,0.2,0.6,0.4,0.9,0.6c0.2,0.1,0.3,0.2,0.5,0.4
							c0.6,0.4-0.2-0.1,0.3,0.3c1.2,1,2.7,1.3,4.2,1.5c0.9,0.1,2-0.4,1.9-1.5c-0.1-1.1-0.3-2.3-0.8-3.3c-0.5-1.2-1.7-2.2-2.6-3
							c-1.6-1.4-3.5-2.7-5.4-3.7c-3.4-1.9-7-3.1-10.9-3.5c-6.7-0.7-13.4,1.8-18.7,5.8c-6,4.5-10.7,10.7-14.3,17.2
							c-3.7,6.7-6.5,14.1-8.1,21.6c-0.9,3.9-1.4,8-1.4,12.1c0,3.6,0.8,6.8,2.2,10.2C894.4,1206.2,896,1205.8,895.9,1204.8
							L895.9,1204.8z"/>
					</g>
				</g>
				<g>
					<g>
						<path class="st1" d="M939.2,1167.6c1.8-2.5,3.5-5,5.7-7.1c2.3-2.2,4.1-3.7,7-5.2c0.4-0.2,0.7-0.4,1.1-0.5c0,0,0.5-0.2,0.2-0.1
							c-0.3,0.1,0.3-0.1,0.3-0.1c0.7-0.3,1.5-0.5,2.2-0.8c0.7-0.2,1.5-0.4,2.3-0.6c0.4-0.1,0.7-0.2,1.1-0.2c0.2,0,1.3-0.2,0.7-0.1
							c1.6-0.2,3.2-0.3,4.8-0.2c0.8,0,1.6,0.1,2.4,0.1c0.2,0,1.2,0.1,0.5,0.1c0.4,0.1,0.9,0.1,1.3,0.2c1.6,0.3,3.1,0.9,4.7,1.2
							c1.7,0.3,5-0.1,4.9-2.4c-0.1-2.3-2.5-3.8-4.4-4.4c-1.6-0.5-3.1-0.8-4.8-1.1c-6.8-1-13.8,0.1-20,3.3
							c-6.5,3.3-12.4,9.7-12.3,17.4C937,1168.2,938.5,1168.5,939.2,1167.6L939.2,1167.6z"/>
					</g>
				</g>
				<g>
					<g>
						<path class="st1" d="M962.2,1149.5c0.1-1.8,0-3.6,0-5.5c0-2.1,0.2-3.1,0.6-5c0.8-3.7,2.4-6.7,4.8-9.9
							c4.6-6.1,11.8-10.7,19.4-12.6c2.4-0.6,4.3-0.9,6.8-1c2.4-0.2,5.2-0.1,7.5-0.8c1-0.3,1.6-1.8,0.7-2.5c-1.9-1.6-4.6-2.2-7.1-2.4
							c-2.5-0.2-5,0.1-7.4,0.6c-4.7,0.9-9.3,2.7-13.4,5.3c-7.7,4.7-14.3,12.1-16.6,21c-0.6,2.3-0.8,4.7-0.7,7
							c0.1,1.2,0.3,2.4,0.6,3.6c0.4,1.4,1.1,2.4,2,3.5C960.3,1151.9,962.2,1150.8,962.2,1149.5L962.2,1149.5z"/>
					</g>
				</g>
				<g>
					<g>
						<path class="st1" d="M835.1,1234.1c-2.6-1.7-5.8-2.5-8.8-3c-2.8-0.4-5.7-0.6-8.6-0.5c-5.5,0.3-10.8,1.6-15.8,3.9
							c-9.7,4.5-17.3,13-22.4,22.3c-5.6,10.2-8.7,21.6-9.5,33.2c-0.8,11.4,0.8,23.1,5.4,33.7c2.2,5,5.3,9.7,9,13.7
							c3.9,4.2,8.6,7.2,14,9.3c1.3,0.5,2.6,0.8,4,1.2c1.3,0.3,2.1-1.5,0.9-2.2c-4.7-2.8-8.6-5.6-12.4-9.5c-0.9-0.9-1.8-1.8-2.6-2.8
							c-0.4-0.5-0.8-1-1.2-1.5c-0.1-0.2-0.6-0.8-0.2-0.3c-0.2-0.3-0.5-0.6-0.7-0.9c-1.5-2.1-2.8-4.3-4-6.6c-0.6-1.1-1.2-2.3-1.7-3.5
							c-0.1-0.3-0.2-0.5-0.3-0.8c0.3,0.7-0.1-0.4-0.2-0.5c-0.2-0.6-0.5-1.2-0.7-1.8c-0.9-2.5-1.6-5.1-2.2-7.7
							c-0.3-1.3-0.6-2.7-0.8-4c0-0.3-0.1-0.6-0.1-0.9c0-0.1,0-0.3-0.1-0.4c-0.1-0.7,0.1,0.4,0,0c-0.1-0.7-0.2-1.4-0.2-2.1
							c-0.3-2.7-0.4-5.4-0.4-8.1c0-2.8,0.2-5.6,0.5-8.4c0-0.3,0.1-0.6,0.1-0.9c0-0.2,0-0.3,0.1-0.5c-0.1,0.6,0,0.1,0-0.1
							c0.1-0.7,0.2-1.4,0.3-2.1c0.2-1.3,0.5-2.7,0.8-4c0.6-2.7,1.3-5.3,2.2-7.9c0.4-1.3,0.9-2.6,1.4-3.9c0.1-0.3,0.2-0.5,0.3-0.8
							c0.1-0.1,0.1-0.3,0.2-0.4c-0.2,0.5,0,0,0-0.1c0.3-0.6,0.6-1.3,0.9-1.9c1.1-2.4,2.3-4.7,3.7-6.9c0.7-1.1,1.4-2.2,2.2-3.3
							c0.3-0.5,0.7-1,1.1-1.5c0.4-0.5-0.2,0.3,0.1-0.1c0.1-0.1,0.2-0.2,0.3-0.3c0.2-0.3,0.5-0.6,0.7-0.9c1.6-1.9,3.3-3.7,5.2-5.4
							c0.5-0.4,0.9-0.8,1.4-1.2c0.2-0.2,0.4-0.3,0.6-0.5c0,0,0.5-0.4,0.2-0.2c-0.3,0.2,0.2-0.1,0.2-0.2c1-0.7,2-1.5,3.1-2.1
							c4.3-2.8,8.2-4.4,13.3-5.3c1.5-0.3,2.1-0.4,3.6-0.5c1.4-0.1,2.7-0.2,4.1-0.2c2.8,0,5.6,0.4,8.4,0.7c0.7,0.1,1.4,0.2,2,0.3
							c0.8,0.1,1.5,0.1,2.3,0.1C835.5,1235.8,835.8,1234.6,835.1,1234.1L835.1,1234.1z"/>
					</g>
				</g>
				<g>
					<g>
						<path class="st1" d="M1221.2,1032.7c0.7-1,1.7-1.7,2.4-2.7c0.7-1,1.2-2,1.9-3c1.2-1.8,2.1-3.1,3.5-4.6
							c0.6-0.7,1.2-1.3,1.9-1.9c0.3-0.3,0.6-0.6,0.9-0.8c0.2-0.2,0.4-0.3,0.6-0.5c0.1-0.1,0.3-0.2,0.4-0.3c-0.2,0.2-0.2,0.2,0,0
							c1.4-1,2.9-1.9,4.4-2.7c0.2-0.1,1.3-0.5,0.6-0.3c0.3-0.1,0.7-0.3,1.1-0.4c0.8-0.3,1.7-0.6,2.6-0.8c0.7-0.2,1.5-0.3,2.2-0.5
							c0.2,0,1.6-0.2,0.7-0.1c0.4,0,0.9-0.1,1.3-0.1c1.7-0.1,3.3-0.1,5,0.1c0.4,0,0.8,0.1,1.1,0.1c-0.9-0.1,0.5,0.1,0.7,0.1
							c0.9,0.2,1.8,0.3,2.6,0.6c1.7,0.4,3.4,1,5,1.6c0.1,0,0.9,0.4,0.2,0.1c0.2,0.1,0.3,0.1,0.5,0.2c0.5,0.2,0.9,0.4,1.4,0.6
							c0.8,0.4,1.7,0.8,2.5,1.3c1.7,0.9,3.3,1.9,4.8,3c0.4,0.3,0.8,0.6,1.2,0.8c0.2,0.1,0.4,0.3,0.5,0.4c0.7,0.5-0.5-0.4,0.2,0.2
							c0.8,0.6,1.5,1.2,2.3,1.9c1.5,1.3,2.9,2.7,4.3,4.1c0.7,0.7,1.4,1.5,2,2.3c0.3,0.4,0.6,0.7,0.9,1.1c0.2,0.2,0.3,0.4,0.5,0.6
							c0.1,0.1,0.2,0.3,0.3,0.4c-0.2-0.2-0.2-0.3-0.1-0.1c2.5,3.3,4.8,6.8,6.6,10.5c0.5,1,1,2,1.4,3.1c0.4,0.8-0.2-0.5,0.1,0.3
							c0.1,0.3,0.2,0.5,0.3,0.8c0.2,0.5,0.4,1.1,0.6,1.6c0.8,2.2,1.4,4.5,2,6.8c1.2,4.7,1.4,9.2,2.1,14c0.2,1.5,2.4,1.2,2.8,0
							c1.5-4.3,1.3-9.1,0.8-13.6c-0.6-4.5-1.8-8.8-3.5-13c-3.4-8.3-8.5-15.7-15-21.8c-11.2-10.5-28.3-18.6-43.5-11.9
							c-3.9,1.7-7.5,4.4-10.3,7.7c-1.6,1.9-3.1,3.9-4.3,6.1c-0.7,1.2-1.3,2.5-1.8,3.8c-0.5,1.3-0.3,2.7-0.6,4.1
							C1219.2,1033.1,1220.6,1033.7,1221.2,1032.7L1221.2,1032.7z"/>
					</g>
				</g>
			</g>
			<g>
				<g>
					<path class="st2" d="M865.8,385.2l-78.3,56.1c-23.6,16.8-19.6,39.4,10,48.6l32.9,10.2L865.8,385.2z"/>
					<path class="st2" d="M955.1,412.6l33.3,90.4c10.1,27.2-5.9,43.6-35.6,34.6l-33-10L955.1,412.6z"/>
					<path class="st2" d="M874.3,343.1c-10.9,18.2-11.7,25.4-11.7,25.4l-43,140L924,540.5l43-140c0,0,4.5-9.7,4.9-27.5L874.3,343.1z
						"/>
					<path class="st2" d="M874.3,343.1l97.6,30c0,0.5,0.1-4.3-0.1-7.6c-1.1-24.5-20.3-73.2-28-75.6c-7.7-2.4-51,23.9-65.6,46.8
						C875.2,341.5,873,345.3,874.3,343.1z"/>
					<g>
						<path class="st2" d="M917.8,374.8c-24-7.4-49.5,6.1-56.9,30.2c-7.4,24,6.1,49.5,30.2,56.9c24.1,7.4,49.5-6.1,56.9-30.2
							C955.3,407.6,941.8,382.1,917.8,374.8z M894.1,451.9c-18.6-5.7-29-25.4-23.3-43.9c5.7-18.6,25.4-29,43.9-23.3
							c18.6,5.7,29,25.4,23.3,43.9C932.3,447.2,912.7,457.6,894.1,451.9z"/>
						<path class="st2" d="M938,428.6c-5.7,18.6-25.4,29-43.9,23.3c-18.6-5.7-29-25.4-23.3-43.9c5.7-18.6,25.4-29,43.9-23.3
							C933.3,390.4,943.7,410,938,428.6z"/>
					</g>
					<g>
						<g>
							<g>
								<path class="st2" d="M829.5,534.7l27.7,8.5c2.3,44.5-32,60.6-32,60.6C801.3,567.2,829.5,534.7,829.5,534.7z"/>
								<path class="st2" d="M852.8,541.9l-19-5.8c-4.9,11.1-10.8,30.5-3.8,49.5C830,585.6,847.5,572,852.8,541.9z"/>
							</g>
							<polygon class="st2" points="860.1,544.1 825.8,533.6 828.9,526.5 861.4,536.5 							"/>
							<path class="st2" d="M863.3,537.1l3.4-11.1c0.5-1.5-0.4-3.2-1.9-3.7l-30.7-9.4c-1.6-0.5-3.2,0.4-3.7,1.9L827,526L863.3,537.1
								z"/>
						</g>
						<g>
							<g>
								<path class="st2" d="M873.8,548.3l27.6,8.5c2.4,44.5-32,60.6-32,60.6C845.6,580.8,873.8,548.3,873.8,548.3z"/>
								<path class="st2" d="M897.1,555.5l-19-5.8c-4.9,11.1-10.8,30.5-3.8,49.5C874.3,599.2,891.8,585.6,897.1,555.5z"/>
							</g>
							<polygon class="st2" points="904.4,557.7 870.1,547.2 873.2,540.2 905.8,550.1 							"/>
							<path class="st2" d="M907.6,550.7l3.4-11.1c0.5-1.6-0.4-3.2-1.9-3.7l-30.7-9.4c-1.5-0.5-3.2,0.4-3.7,1.9l-3.4,11.1
								L907.6,550.7z"/>
						</g>
					</g>
				</g>
				<g>
					<g>
						<g>
							<path class="st1" d="M940.8,297.7c-0.4,1.1-0.1,2.1,0.1,3.2c0.2,1,0.4,2.1,0.6,3.1c0.5,2.2,1,4.4,1.5,6.5
								c1,4.2,2.3,8.4,3.6,12.5c2.7,8.4,5.4,16.8,7.8,25.3c0.6,2.1,1.1,4.2,1.7,6.3c0.6,2.1,1.2,5.2,3.6,5.9
								c2.2,0.6,3.2-2.1,3.2-3.8c0-2.2-0.6-4.6-1.1-6.8c-2-8.6-5-16.9-8-25.2c-1.7-4.7-3.4-9.4-5.1-14.1c-0.8-2.3-1.7-4.5-2.4-6.7
								c-0.4-1.2-0.8-2.3-1.1-3.5c-0.4-1.2-0.6-2.6-1.6-3.5C942.6,296.1,941.3,296.5,940.8,297.7L940.8,297.7z"/>
						</g>
					</g>
					<g>
						<g>
							<path class="st1" d="M918,364.8c1.6,2,3.5,3.2,5.8,4.2c2.5,1.1,5,2,7.6,2.7c4.6,1.3,9.2,2.8,13.8,4c2.2,0.6,4.5,1.2,6.6,2
								c1,0.4,1.4,0.5,2.5,1.1c0.4,0.2,0.9,0.5,1.3,0.8c0.3,0.2,0.6,0.4,0.8,0.6c0.5,0.3-0.1-0.1,0.4,0.3c0.4,0.4,0.8,0.7,1.2,1.1
								c0.3,0.4,0.6,0.7,0.7,0.8c0.3,0.4,0.6,0.9,0.9,1.4c0.2,0.3,0.3,0.6,0.5,0.9c-0.2-0.5,0.1,0.4,0.1,0.4c0.2,0.5,0.3,1,0.4,1.5
								c-0.1-0.6,0,0.5,0.1,0.7c0,0.5,0,1.1,0,1.6c0,0.3,0,0.5-0.1,0.8c0,0.2,0,0.3-0.1,0.5c0-0.3,0-0.3,0,0.1
								c-0.4,2.5-1.1,5-1.7,7.5c-0.7,3-1.2,6.1-1.9,9.1c-1.3,6.1-2.7,12.1-4.4,18.1c-3.3,12.1-7.3,23.9-11.6,35.6
								c-2.4,6.7-4.9,13.3-7.4,19.9c-1.2,3.2-2.4,6.5-3.5,9.8c-0.6,1.6-1.2,3.3-1.7,4.9c-0.3,0.9-0.5,1.8-0.5,2.7
								c0,0.9,0,1.5-0.5,2.3c-0.5,1,0.6,2.4,1.7,1.7c1.1-0.7,2.3-1.7,3-2.8c0.9-1.4,1.4-3,2.1-4.5c1.3-3,2.6-6.1,3.8-9.2
								c2.4-6.1,4.7-12.2,7-18.3c4.5-12.1,8.7-24.3,12.5-36.6c1.9-6.2,3.6-12.5,5.1-18.9c0.8-3.1,1.4-6.3,2.1-9.5
								c0.6-2.8,1.4-5.6,1.9-8.4c1-5.1,1.1-10.2-2-14.6c-3-4.4-7.7-6.8-12.7-8.4c-5.1-1.6-10.3-2.9-15.5-4.1c-3-0.7-6-1.3-9-2.1
								c-1.4-0.4-2.7-0.8-4.1-1.3c-1.3-0.5-2.6-0.8-3.9-1.2C917.9,361.7,917.2,363.7,918,364.8L918,364.8z"/>
						</g>
					</g>
					<g>
						<g>
							<path class="st1" d="M841.2,411.3c-1.5,1.4-3.4,2.2-5,3.4c-2.1,1.6-4.4,3-6.6,4.5c-5.3,3.3-10.7,6.6-15.9,10
								c-5.6,3.6-11.1,7.3-16.1,11.7c-4.2,3.7-8.4,7.9-10.8,13c-1.3,2.7-2.1,5.7-2.1,8.7c0,3.4,0.7,7.7,3.7,9.7
								c1.7,1.1,3.8-0.4,3.8-2.2c0-1.5-0.5-2.8-1-4.2c-0.2-0.6-0.4-1.1-0.5-1.7c-0.1-0.3-0.1-0.5-0.2-0.8c0-0.1,0-0.3-0.1-0.4
								c0.1,0.8,0,0.2,0,0c0-0.6-0.1-1.1-0.1-1.7c0-0.3,0-0.6,0-0.9c0-0.2,0.1-1,0.1-0.6c-0.1,0.4,0.1-0.5,0.1-0.6
								c0.1-0.3,0.1-0.5,0.2-0.8c0.1-0.6,0.3-1.2,0.5-1.7c0.1-0.3,0.2-0.5,0.3-0.8c-0.2,0.6,0.1-0.3,0.2-0.4
								c0.3-0.6,0.6-1.1,0.9-1.7c0.6-1.1,1.4-2.2,2.2-3.3c0-0.1,0.3-0.4,0-0.1c0.1-0.1,0.2-0.2,0.3-0.4c0.2-0.2,0.4-0.5,0.6-0.7
								c0.5-0.6,0.9-1.1,1.4-1.6c1-1.1,2.1-2.1,3.2-3.2c9.1-8.3,20.2-14.3,30.4-21.3c2.5-1.7,5-3.5,7.4-5.5c1.8-1.5,3.2-3.5,4.4-5.5
								C843,411.5,841.9,410.7,841.2,411.3L841.2,411.3z"/>
						</g>
					</g>
					<g>
						<g>
							<path class="st1" d="M952.4,465.6c-1.3,1.2-1.6,3.2-2.1,4.9c-0.5,1.8-1,3.6-1.6,5.4c-1.1,3.7-2.5,7.3-3.8,10.9
								c-2.7,7.4-5.7,14.7-8,22.3c-1.1,3.7-2,7.5-2.6,11.3c-0.2,1.1-0.6,2.5-0.3,3.6c0.3,1.1,1.2,1.8,2,2.5c1.2,1.1,2.5,2.1,3.8,3
								c5.7,3.7,12.4,5.3,19,6.1c3.5,0.4,7.1,0.5,10.6,0.4c1.9-0.1,3.9-0.2,5.8-0.7c1.8-0.5,3.3-1.4,4.7-2.6
								c1.3-1.1,0.5-3.1-0.9-3.5c-1.7-0.6-3.4-0.9-5.2-0.9c-1.8,0-3.6,0.2-5.4,0.2c-1.8,0.1-3.5,0-5.3,0c-1,0-1.9-0.1-2.9-0.2
								c-0.5,0-1-0.1-1.4-0.1c-0.1,0-1.6-0.2-0.8-0.1c-3.6-0.5-7.2-1.4-10.6-2.6c-0.4-0.2-0.8-0.3-1.3-0.5c-0.1,0-1.4-0.5-0.7-0.3
								c-0.8-0.3-1.6-0.7-2.4-1.1c-0.8-0.4-1.5-0.8-2.2-1.3c-0.1-0.1-1.1-0.8-0.6-0.4c-0.3-0.3-0.6-0.6-0.9-0.8
								c0.3,0.8,0.6,1.5,1,2.3c1.6-15.6,9.5-29.6,13.1-44.7c0.5-2.1,0.8-4.3,1.1-6.4c0.2-2,0.7-4.6-0.5-6.3
								C953.8,465.2,953,465.1,952.4,465.6L952.4,465.6z"/>
						</g>
					</g>
					<g>
						<g>
							<path class="st1" d="M878.3,407.1c2.9,0.6,6.2-0.8,8.8-2c3-1.4,5.8-3.1,8.7-4.8c2.9-1.7,5.8-3.4,8.8-5.1
								c1.4-0.8,2.8-1.7,4.3-2.6c1.3-0.8,3.1-1.8,3.9-3.1c0.3-0.5,0.1-1.3-0.6-1.4c-1.5-0.2-3.2,0.5-4.6,1.1
								c-1.6,0.7-3.2,1.4-4.7,2.3c-2.9,1.7-5.8,3.5-8.7,5.2c-2.8,1.7-5.7,3.4-8.6,4.9c-2.5,1.3-5.6,2.8-7.4,5.1
								C878,406.8,878.1,407.1,878.3,407.1L878.3,407.1z"/>
						</g>
					</g>
					<g>
						<g>
							<path class="st1" d="M875.9,415.6c3.2-0.7,6.4-2.3,9.2-3.9c3.2-1.8,6.3-3.8,9.3-5.8c6-3.9,12-7.7,18.7-10.3
								c1.7-0.7,3.5-1.3,5.3-1.7c1.7-0.4,4.3-1.4,3.3-3.6c-0.3-0.6-1-0.9-1.6-0.9c-3.1-0.3-6.4,1-9.3,2.2c-3.2,1.3-6.3,3-9.4,4.7
								c-6,3.5-11.7,7.6-17.4,11.7c-3,2.1-6,4.4-8.6,6.9C875.1,415.1,875.5,415.7,875.9,415.6L875.9,415.6z"/>
						</g>
					</g>
					<g>
						<g>
							<path class="st1" d="M875.1,423.7c1.7-0.4,3.4-0.5,5-1c1.8-0.5,3.5-1.2,5.2-1.9c3.4-1.4,6.7-3.3,9.9-5.1
								c6.6-3.7,13-7.7,19.5-11.6c1.8-1.1,3.7-2.1,5.4-3.3c1.4-1,3.5-2.4,3.7-4.2c0-0.3-0.2-0.8-0.5-0.9c-1.5-0.7-3.1,0.2-4.6,0.7
								c-1.7,0.7-3.3,1.7-4.9,2.7c-3.2,2-6.3,3.9-9.4,5.9c-6.4,4-12.8,7.9-19.5,11.4c-1.8,0.9-3.5,1.9-5.2,3c-1.7,1-3.2,2.3-5,3.2
								C874.1,422.9,874.5,423.8,875.1,423.7L875.1,423.7z"/>
						</g>
					</g>
					<g>
						<g>
							<path class="st1" d="M874.7,432.2c1.8,0.3,3.9-0.2,5.6-0.8c1.9-0.6,3.8-1.4,5.6-2.2c3.7-1.8,7.3-3.8,10.8-6
								c7.1-4.3,13.9-9,21-13.2c2-1.2,4-2.3,6-3.3c2-1,4.5-1.9,5.1-4.3c0.1-0.5-0.1-1.1-0.6-1.4c-1.9-1.1-4-0.2-5.8,0.7
								c-1.8,0.9-3.6,1.8-5.3,2.8c-3.6,2-7.1,4.2-10.6,6.5c-6.9,4.5-13.6,9.2-20.9,13.2c-1.9,1-3.8,2.1-5.7,3.1
								c-1.9,1-4.1,1.9-5.6,3.4C873.9,431.2,874,432.1,874.7,432.2L874.7,432.2z"/>
						</g>
					</g>
				</g>
			</g>
		</g>
	</g>
</g>
</svg>
